<?xml version="1.0" encoding="UTF-8"?>
<svg width="129px" height="129px" viewBox="0 0 129 129" version="1.1" xmlns="http://www.w3.org/2000/svg" xmlns:xlink="http://www.w3.org/1999/xlink">
    <!-- Generator: Sketch 55.2 (78181) - https://sketchapp.com -->
    <title>abacus</title>
    <desc>Created with Sketch.</desc>
    <g id="Page-1" stroke="none" stroke-width="1" fill="none" fill-rule="evenodd">
        <g id="DESIGN-DESKTOP" transform="translate(-483.000000, -797.000000)" fill-rule="nonzero">
            <g id="abacus" transform="translate(483.000000, 797.000000)">
                <g id="Group" transform="translate(7.000000, 15.000000)" fill="#A24F3D">
                    <path d="M65.2087912,0 C54.231978,0 -0.686714286,0 0.252747253,0 L0.252747253,7.57653061 C1.50510989,7.57653061 28.7244725,7.57653061 27.2967033,7.57653061 C29.4546593,7.57653061 120.298846,7.57653061 114.494505,7.57653061 L114.494505,0 C113.69633,0 63.299033,0 65.2087912,0 Z" id="Path"></path>
                    <path d="M80.3736264,91.4234694 C79.6103297,91.4234694 -2.98949451,91.4234694 0.252747253,91.4234694 L0.252747253,99 C39.8751758,99 72.0195714,99 114.494505,99 L114.494505,91.4234694 C113.342989,91.4234694 78.819989,91.4234694 80.3736264,91.4234694 Z" id="Path"></path>
                    <path d="M0.252747253,60.8647959 L0.252747253,68.4413265 C1.2056044,68.4413265 67.0763407,68.4413265 65.2087912,68.4413265 C66.5079121,68.4413265 116.201813,68.4413265 114.494505,68.4413265 L114.494505,60.8647959 C113.24189,60.8647959 -3.04408791,60.8647959 0.252747253,60.8647959 Z" id="Path"></path>
                    <path d="M0.252747253,30.5586735 L0.252747253,38.1352041 C1.03146154,38.1352041 43.2402527,38.1352041 42.4615385,38.1352041 C44.4193187,38.1352041 92.525967,38.1352041 91.7472527,38.1352041 L114.494505,38.1352041 L114.494505,30.5586735 C112.493,30.5586735 -0.727153846,30.5586735 0.252747253,30.5586735 Z" id="Path"></path>
                </g>
                <g id="Group" transform="translate(23.000000, 69.000000)" fill="#FEDB41">
                    <path d="M11.5,23 C5.15864444,23 0,17.8413556 0,11.5 C0,5.15864444 5.15864444,0 11.5,0 C17.8413556,0 23,5.15864444 23,11.5 C23,17.8413556 17.8413556,23 11.5,23 Z" id="Path"></path>
                    <path d="M34.5,23 C28.1586444,23 23,17.8413556 23,11.5 C23,5.15864444 28.1586444,0 34.5,0 C40.8413556,0 46,5.15864444 46,11.5 C46,17.8413556 40.8413556,23 34.5,23 Z" id="Path"></path>
                    <path d="M57.5,23 C51.1586444,23 46,17.8413556 46,11.5 C46,5.15864444 51.1586444,0 57.5,0 C63.8413556,0 69,5.15864444 69,11.5 C69,17.8413556 63.8413556,23 57.5,23 Z" id="Path"></path>
                </g>
                <g id="Group" transform="translate(37.000000, 98.000000)" fill="#32D736">
                    <path d="M11.5,23 C5.15864444,23 0,17.8413556 0,11.5 C0,5.15864444 5.15864444,0 11.5,0 C17.8413556,0 23,5.15864444 23,11.5 C23,17.8413556 17.8413556,23 11.5,23 Z" id="Path"></path>
                    <path d="M34.5,23 C28.1586444,23 23,17.8413556 23,11.5 C23,5.15864444 28.1586444,0 34.5,0 C40.8413556,0 46,5.15864444 46,11.5 C46,17.8413556 40.8413556,23 34.5,23 Z" id="Path"></path>
                    <path d="M57.5,23 C51.1586444,23 46,17.8413556 46,11.5 C46,5.15864444 51.1586444,0 57.5,0 C63.8413556,0 69,5.15864444 69,11.5 C69,17.8413556 63.8413556,23 57.5,23 Z" id="Path"></path>
                </g>
                <g id="Group" transform="translate(46.000000, 37.000000)" fill="#FD3C65">
                    <path d="M11.5,23 C5.15864444,23 0,17.8413556 0,11.5 C0,5.15864444 5.15864444,0 11.5,0 C17.8413556,0 23,5.15864444 23,11.5 C23,17.8413556 17.8413556,23 11.5,23 Z" id="Path"></path>
                    <path d="M34.5,23 C28.1586444,23 23,17.8413556 23,11.5 C23,5.15864444 28.1586444,0 34.5,0 C40.8413556,0 46,5.15864444 46,11.5 C46,17.8413556 40.8413556,23 34.5,23 Z" id="Path"></path>
                    <path d="M57.5,23 C51.1586444,23 46,17.8413556 46,11.5 C46,5.15864444 51.1586444,0 57.5,0 C63.8413556,0 69,5.15864444 69,11.5 C69,17.8413556 63.8413556,23 57.5,23 Z" id="Path"></path>
                </g>
                <g id="Group" transform="translate(23.000000, 8.000000)" fill="#17ACE8">
                    <path d="M11.5,23 C5.15864444,23 0,17.8413556 0,11.5 C0,5.15864444 5.15864444,0 11.5,0 C17.8413556,0 23,5.15864444 23,11.5 C23,17.8413556 17.8413556,23 11.5,23 Z" id="Path"></path>
                    <path d="M34.5,23 C28.1586444,23 23,17.8413556 23,11.5 C23,5.15864444 28.1586444,0 34.5,0 C40.8413556,0 46,5.15864444 46,11.5 C46,17.8413556 40.8413556,23 34.5,23 Z" id="Path"></path>
                    <path d="M57.5,23 C51.1586444,23 46,17.8413556 46,11.5 C46,5.15864444 51.1586444,0 57.5,0 C63.8413556,0 69,5.15864444 69,11.5 C69,17.8413556 63.8413556,23 57.5,23 Z" id="Path"></path>
                </g>
                <g id="Group" fill="#B35C4B">
                    <path d="M7.55859375,129 L7.55859375,129 C3.38398242,129 0,125.616018 0,121.441406 L0,7.55859375 C0,3.38398242 3.38398242,0 7.55859375,0 L7.55859375,0 C11.7332051,0 15.1171875,3.38398242 15.1171875,7.55859375 L15.1171875,121.441406 C15.1171875,125.616018 11.7332051,129 7.55859375,129 Z" id="Path"></path>
                    <path d="M121.441406,129 L121.441406,129 C117.266795,129 113.882812,125.616018 113.882812,121.441406 L113.882812,7.55859375 C113.882812,3.38398242 117.266795,0 121.441406,0 L121.441406,0 C125.616018,0 129,3.38398242 129,7.55859375 L129,121.441406 C129,125.616018 125.616018,129 121.441406,129 Z" id="Path"></path>
                </g>
                <g id="Group" transform="translate(35.000000, 8.000000)" fill="#1689FC">
                    <path d="M0,0 L0,23 C6.28621333,23 11.4,17.8413556 11.4,11.5 C11.4,5.15864444 6.28621333,0 0,0 Z" id="Path"></path>
                    <path d="M22.8,0 L22.8,23 C29.0862133,23 34.2,17.8413556 34.2,11.5 C34.2,5.15864444 29.0862133,0 22.8,0 Z" id="Path"></path>
                    <path d="M45.6,0 L45.6,23 C51.8862133,23 57,17.8413556 57,11.5 C57,5.15864444 51.8862133,0 45.6,0 Z" id="Path"></path>
                </g>
                <g id="Group" transform="translate(58.000000, 37.000000)" fill="#E50027">
                    <path d="M22.8,0 L22.8,23 C29.0862133,23 34.2,17.8413556 34.2,11.5 C34.2,5.15864444 29.0862133,0 22.8,0 Z" id="Path"></path>
                    <path d="M45.6,0 L45.6,23 C51.8862133,23 57,17.8413556 57,11.5 C57,5.15864444 51.8862133,0 45.6,0 Z" id="Path"></path>
                    <path d="M0,0 L0,23 C6.28621333,23 11.4,17.8413556 11.4,11.5 C11.4,5.15864444 6.28621333,0 0,0 Z" id="Path"></path>
                </g>
                <g id="Group" transform="translate(35.000000, 69.000000)" fill="#FEA832">
                    <path d="M22.8,0 L22.8,23 C29.0862133,23 34.2,17.8413556 34.2,11.5 C34.2,5.15864444 29.0862133,0 22.8,0 Z" id="Path"></path>
                    <path d="M45.6,0 L45.6,23 C51.8862133,23 57,17.8413556 57,11.5 C57,5.15864444 51.8862133,0 45.6,0 Z" id="Path"></path>
                    <path d="M0,0 L0,23 C6.28621333,23 11.4,17.8413556 11.4,11.5 C11.4,5.15864444 6.28621333,0 0,0 Z" id="Path"></path>
                </g>
                <g id="Group" transform="translate(49.000000, 98.000000)" fill="#10BB67">
                    <path d="M0,0 L0,23 C6.28621333,23 11.4,17.8413556 11.4,11.5 C11.4,5.15864444 6.28621333,0 0,0 Z" id="Path"></path>
                    <path d="M22.8,0 L22.8,23 C29.0862133,23 34.2,17.8413556 34.2,11.5 C34.2,5.15864444 29.0862133,0 22.8,0 Z" id="Path"></path>
                    <path d="M45.6,0 L45.6,23 C51.8862133,23 57,17.8413556 57,11.5 C57,5.15864444 51.8862133,0 45.6,0 Z" id="Path"></path>
                </g>
                <g id="Group" transform="translate(8.000000, 0.000000)" fill="#A24F3D">
                    <path d="M7.53112033,121.441406 L7.53112033,7.55859375 C7.53112033,3.38398242 4.15943776,0 0,0 L0,129 C4.15943776,129 7.53112033,125.615514 7.53112033,121.441406 Z" id="Path"></path>
                    <path d="M121,121.441406 L121,7.55859375 C121,3.38398242 117.628317,0 113.46888,0 L113.46888,129 C117.628317,129 121,125.615514 121,121.441406 Z" id="Path"></path>
                </g>
            </g>
        </g>
    </g>
</svg>