<?xml version="1.0" encoding="UTF-8"?>
<svg width="29px" height="28px" viewBox="0 0 29 28" version="1.1" xmlns="http://www.w3.org/2000/svg" xmlns:xlink="http://www.w3.org/1999/xlink">
    <!-- Generator: Sketch 55.2 (78181) - https://sketchapp.com -->
    <title>clock</title>
    <desc>Created with Sketch.</desc>
            <path d="M14.48,0.309996338 C8.93209559,0.305959288 3.9286018,3.64589514 1.80457927,8.77110616 C-0.319443254,13.8963172 0.854726796,19.7964397 4.77912066,23.7179691 C8.70351453,27.6394984 14.6044929,28.8093599 19.7281516,26.6815956 C24.8518103,24.5538312 28.1880918,19.5479 28.1800147,14 C28.1634821,6.44217169 22.0378384,0.320999219 14.48,0.309996338 M14.48,25.38 C8.20865087,25.38 3.12369345,20.298003 3.12001756,14.0266549 C3.11634566,7.75530688 8.19534532,2.66736532 14.4666901,2.65999983 C20.7380349,2.65265032 25.8289589,7.72866059 25.8400044,14 C25.8426533,17.0155118 24.64729,19.9085701 22.5168765,22.0427343 C20.3864629,24.1768986 17.4955118,25.377349 14.48,25.38" id="Shape"></path>
            <path d="M15.65,13.8 L15.65,5.51 C15.65,4.86106542 15.1239346,4.335 14.475,4.335 C13.8260654,4.335 13.299981,4.86106542 13.299981,5.51 L13.299981,14.28 C13.299159,14.4271094 13.3263082,14.5730362 13.38,14.71 L13.38,14.71 C13.4397155,14.8560782 13.5281261,14.9886941 13.64,15.1 L17.35,18.81 C17.814324,19.1858954 18.4872631,19.1516067 18.910975,18.7304627 C19.334687,18.3093187 19.3730658,17.6366004 19,17.17 L15.65,13.8 Z" id="Path"></path>
</svg>