<?xml version="1.0" encoding="UTF-8"?>
<svg width="206px" height="134px" viewBox="0 0 206 134" version="1.1" xmlns="http://www.w3.org/2000/svg" xmlns:xlink="http://www.w3.org/1999/xlink">
    <!-- Generator: Sketch 55.2 (78181) - https://sketchapp.com -->
    <title>Path Copy 4</title>
    <desc>Created with Sketch.</desc>
    <g id="Page-1" stroke="none" stroke-width="1" fill="none" fill-rule="evenodd">
        <g id="DESIGN-DESKTOP" transform="translate(-63.000000, -31.000000)" fill="#FFFFFF" fill-rule="nonzero">
            <path d="M269,108.865998 C269,90.6424866 253.28426,75.5415092 232.72546,72.7525349 C233.465,71.2716017 233.877,69.6474651 233.877,67.9360094 C233.877,61.1390851 227.3777,55.6257526 219.35194,55.6257526 C215.67896,55.6257526 212.33352,56.7923368 209.775,58.7011338 C207.94366,43.1495895 192.46688,31 173.64054,31 C158.09784,31 144.83968,39.2813502 139.66084,50.9262348 C131.41054,53.8881011 124.11196,58.3832921 118.24714,63.9787045 C112.53476,60.5488075 105.56372,58.5230027 98.0303,58.5230027 C78.68278,58.5230027 63,71.8199661 63,88.2219992 C63,97.0744168 67.57732,105.018715 74.82646,110.458699 C69.25828,113.481689 65.56058,118.774977 65.56058,124.796507 C65.56058,134.199036 74.55042,141.820253 85.64146,141.820253 C88.52752,141.820253 91.26938,141.296338 93.75374,140.369008 C100.21802,153.145549 115.1901,162.097511 132.63006,162.097511 C146.19104,162.097511 158.25028,156.683722 165.99176,148.269647 C167.00734,148.231226 168.0188,148.161371 169.02614,148.081037 C174.04842,158.024945 185.7039,165 199.27518,165 C214.1216,165 226.67318,156.659273 230.75816,145.201251 C252.27486,143.133533 269,127.660576 269,108.865998 Z" id="Path-Copy-4"></path>
        </g>
    </g>
</svg>