<?xml version="1.0" encoding="UTF-8"?>
<svg width="85px" height="77px" viewBox="0 0 85 77" version="1.1" xmlns="http://www.w3.org/2000/svg" xmlns:xlink="http://www.w3.org/1999/xlink">
    <!-- Generator: Sketch 55.2 (78181) - https://sketchapp.com -->
    <title>Shape</title>
    <desc>Created with Sketch.</desc>
    <g id="Page-1" stroke="none" stroke-width="1" fill="none" fill-rule="evenodd">
        <g id="DESIGN-DESKTOP" transform="translate(-514.000000, -2096.000000)" fill="#1EB1FB" fill-rule="nonzero">
            <g id="EDUCATIONAL-LEARNING" transform="translate(514.000000, 2096.000000)">
                <path d="M41.2807468,1.3649334 C28.4108032,1.3649334 31.2643208,1.3649334 18.8439217,1.3649334 C18.1097825,1.3649334 17.5157158,1.95429883 17.5157158,2.68121577 L17.5157158,49.7967928 L13.5777977,49.7967928 C6.21260358,49.7967928 0,55.6308722 0,63.2526999 C0,70.6722151 6.09107274,76.7073171 13.5777977,76.7073171 L83.6717941,76.7073171 C84.4059333,76.7073171 85,76.1185835 85,75.3910347 L85,75.1635153 C85,74.4848006 84.4798746,73.9179305 83.7989034,73.8536564 C78.2092549,73.3211807 74.0513727,68.6063889 74.0513727,63.2462765 C74.0513727,58.0310341 78.0779618,53.1967239 83.7989034,52.6517435 C84.4798746,52.5874694 85,52.0205992 85,51.3418846 L85,51.1130752 C85,50.3855264 84.4059333,49.7967928 83.6717941,49.7967928 L67.4732601,49.7967928 L67.2378356,21.6149767 C67.2378356,21.6144107 67.2375168,21.6138579 67.2375168,21.6132919 C67.2375168,21.611923 67.237198,21.6104751 67.2370254,21.6091193 C67.2302648,21.0921494 67.4012315,21.8293991 58.2335291,0.799340034 C58.0208036,0.31409254 57.5370046,-0.0554668979 57.0039026,0.00687223504 C56.4708006,0.0113739207 55.9921816,0.331441141 55.788541,0.819268549 C47.1126069,21.6646664 47.1297274,21.2461939 47.1344426,21.780802 C47.279921,39.1516619 47.2259825,32.7361412 47.369535,49.7967928 L42.6089395,49.7967928 L42.6089395,2.68121577 C42.6089527,1.95429883 42.0148993,1.3649334 41.2807468,1.3649334 Z M41.4634146,49.7560976 L35.2439024,49.7560976 L35.2439024,4.14634146 L41.4634146,4.14634146 L41.4634146,49.7560976 Z M18.6585366,43.206563 L24.8433853,43.1558337 C25.5699514,43.1494368 26.1540383,42.5580274 26.1476235,41.8347611 C26.1412087,41.114064 25.5545585,40.5341637 24.833119,40.5341637 C24.8292675,40.5341637 24.825416,40.5341637 24.8228527,40.5341637 L18.6585366,40.5847226 L18.6585366,28.2817236 L24.8433984,28.2309943 C25.5699645,28.2245974 26.1540514,27.633188 26.1476366,26.9099217 C26.1412219,26.1892246 25.5545717,25.6093243 24.8331322,25.6093243 C24.8292807,25.6093243 24.8254292,25.6093243 24.8228659,25.6093243 L18.6585366,25.6598832 L18.6585366,13.3579984 L24.8446867,13.3061548 C25.5699776,13.299758 26.1540514,12.7083485 26.1476366,11.9837976 C26.1412219,11.2643721 25.5545717,10.6844849 24.8331322,10.6844849 C24.8292807,10.6844849 24.8254292,10.6844849 24.8215777,10.6844849 L18.6585366,10.7360924 L18.6585366,4.14634146 L31.097561,4.14634146 L31.097561,49.7560976 L18.6585366,49.7560976 L18.6585366,43.206563 L18.6585366,43.206563 Z M72.1361179,59.2629698 L38.4423979,59.2629698 L38.4423979,59.077064 C38.4423979,58.3802263 37.8464951,57.8163441 37.1100868,57.8163441 L25.834885,57.8163441 C25.0984767,57.8163441 24.5025739,58.3802263 24.5025739,59.077064 L24.5025739,59.2629698 L13.6411213,59.2629698 C12.904713,59.2629698 12.3088102,59.826852 12.3088102,60.5236897 C12.3088102,61.2205274 12.904713,61.7844097 13.6411213,61.7844097 L24.5025739,61.7844097 L24.5025739,66.7558822 C15.5872813,67.1680242 12.3049066,65.8000926 12.3049066,68.0166022 C12.3049066,68.7134399 12.9008093,69.2773221 13.6372176,69.2773221 L24.5025739,69.2773221 L24.5025739,72.9412894 C24.5025739,73.3906731 24.7549802,73.8067989 25.1661314,74.0321021 C25.5772826,74.2574054 26.0834009,74.2574054 26.4971368,74.0357961 L31.4724925,71.340755 L36.4478483,74.0357961 C36.6534239,74.1466007 36.8811158,74.2020094 37.1101001,74.2020094 C37.3403901,74.2020094 37.5719857,74.1453778 37.7788537,74.0321021 C38.1899915,73.8067989 38.4424112,73.3906604 38.4424112,72.9412894 L38.4424112,69.2797805 L72.1375834,69.2797805 C73.1215351,71.4553419 74.7179635,73.2974806 76.7047191,74.6341463 L13.0283115,74.6341463 C6.98737338,74.6341463 2.07317073,69.9840061 2.07317073,64.2689104 C2.07317073,58.4669764 6.99105056,53.902439 13.0283115,53.902439 C20.6684225,53.902439 68.5418225,53.902439 76.7073171,53.902439 C74.7174706,55.2394199 73.1207091,57.0848744 72.1361179,59.2629698 Z M70.4878049,66.3414634 L39.3902439,66.3414634 L39.3902439,60.1219512 L70.4865559,60.1219512 C70.3388922,61.019067 70.2376912,62.2138762 70.2376912,63.2286254 C70.2377038,64.2336795 70.335751,65.4079163 70.4878049,66.3414634 Z M29.0243902,58.0487805 L37.3170732,58.0487805 L37.3170732,68.4146341 L33.8085327,66.4530631 C33.6105471,66.342932 33.3912617,66.2878602 33.1707317,66.2878602 C32.9502017,66.2878602 32.7309163,66.342932 32.5329307,66.4530631 L29.0243902,68.4146341 L29.0243902,58.0487805 L29.0243902,58.0487805 Z M58.0487805,49.7560976 L58.0487805,25.6466639 L66.0515436,22.804878 L66.3414634,49.7560976 L58.0487805,49.7560976 L58.0487805,49.7560976 Z M56.870643,6.2195122 L64.2682927,21.8363172 L57.0254872,24.8780488 L49.7560976,21.9494155 L56.870643,6.2195122 Z M49.7560976,22.804878 L55.9756098,25.5502809 L55.9756098,49.7560976 L49.9788826,49.7560976 L49.7560976,22.804878 Z" id="Shape"></path>
            </g>
        </g>
    </g>
</svg>