<?xml version="1.0" encoding="UTF-8"?>
<svg width="90px" height="62px" viewBox="0 0 90 62" version="1.1" fill="#000000" xmlns="http://www.w3.org/2000/svg" xmlns:xlink="http://www.w3.org/1999/xlink">
    <!-- Generator: Sketch 55.2 (78181) - https://sketchapp.com -->
    <title>Group</title>
    <desc>Created with Sketch.</desc>

            <path d="M3.9999985,0.36218 C1.8358785,0.36218 -1.5e-06,2.19798 -1.5e-06,4.36218 L-1.5e-06,58.3622 C-1.5e-06,60.5263 1.8358785,62.3622 3.9999985,62.3622 L85.9999985,62.3622 C88.164122,62.3622 89.9999985,60.5263 89.9999985,58.3622 L89.9999985,4.36218 C89.9999985,2.19798 88.164122,0.36218 85.9999985,0.36218 L3.9999985,0.36218 L3.9999985,0.36218 Z M10.593748,6.36218 L79.406252,6.36218 L44.999999,38.2684 L10.593748,6.36218 L10.593748,6.36218 Z M5.999998,10.29968 L28.187498,30.8309 L5.999998,52.2372 L5.999998,10.29968 Z M84.000002,10.29968 L84.000002,52.2372 L61.812499,30.8309 L84.000002,10.29968 L84.000002,10.29968 Z M32.624999,34.9559 L42.968749,44.5497 C44.1169543,45.6059311 45.8830437,45.6059311 47.031249,44.5497 L57.374999,34.9559 L79.593752,56.3622 L10.406249,56.3622 L32.624999,34.9559 L32.624999,34.9559 Z" id="Shape"></path>

</svg>