<?xml version="1.0" encoding="UTF-8"?>
<svg width="129px" height="129px" viewBox="0 0 129 129" version="1.1" xmlns="http://www.w3.org/2000/svg" xmlns:xlink="http://www.w3.org/1999/xlink">
    <!-- Generator: Sketch 55.2 (78181) - https://sketchapp.com -->
    <title>color</title>
    <desc>Created with Sketch.</desc>
    <g id="Page-1" stroke="none" stroke-width="1" fill="none" fill-rule="evenodd">
        <g id="DESIGN-DESKTOP" transform="translate(-221.000000, -797.000000)" fill-rule="nonzero">
            <g id="color" transform="translate(221.000000, 797.000000)">
                <rect id="Rectangle" fill="#F05540" x="98" y="18" width="14" height="26"></rect>
                <rect id="Rectangle" fill="#F3705A" x="92" y="6" width="26" height="13"></rect>
                <path d="M12,69.6427698 L12,129 L117,129 L117,69.6427698 C96.3750673,48.9617986 84.8571172,37.412554 64.4998744,17 L64.4998744,17 C44.1428828,37.6809712 32.6249327,49.2302158 12,69.6427698 Z" id="Path" fill="#FFD15C"></path>
                <path d="M118,69.3726857 C97.2316365,48.7978183 85.6335878,37.3078272 65.1347758,17 C54.6156918,27.1537883 46.5240887,35.170003 38.4324857,43.1862176 C30.3408826,51.2024322 22.2492796,59.2186468 12,69.3724352 L12,81.3967571 C32.7683635,60.8218897 44.3664122,49.3318986 64.8652242,29.0240714 C85.6335878,49.5989388 97.2316365,61.0889299 117.730448,81.3967571 L117.730448,83 L117.730448,83 L117.730448,69.3724352 L118,69.3724352 L118,69.3726857 Z" id="Path" fill="#F7B64C"></path>
                <path d="M55,129 L23,129 L23,97.1828292 C23,88.1313683 30.3220727,81 39,81 L39,81 C47.9491999,81 55,88.4057407 55,97.1828292 L55,129 Z" id="Path" fill="#415A6B"></path>
                <rect id="Rectangle" fill="#344A5E" x="64" y="81" width="41" height="36"></rect>
                <g id="Group" transform="translate(68.000000, 86.000000)" fill="#8AD7F8">
                    <rect id="Rectangle" x="0.226181818" y="0.104504505" width="13.7049697" height="28.703991"></rect>
                    <rect id="Rectangle" x="18.0686061" y="0.104504505" width="13.7049697" height="28.703991"></rect>
                </g>
                <path d="M126.58125,59.3088067 L70.412584,2.44853222 C67.187584,-0.816177408 61.543834,-0.816177408 58.318834,2.44853222 L2.41875,59.3088067 C-0.80625,62.5735163 -0.80625,68.2867581 2.41875,71.5514678 C5.64375,74.8161774 11.2875,74.8161774 14.5125,71.5514678 L64.5,20.9484685 L114.4875,71.5514678 C117.7125,74.8161774 123.35625,74.8161774 126.58125,71.5514678 C129.80625,68.014869 129.80625,62.5735163 126.58125,59.3088067 Z" id="Path" fill="#F3705A"></path>
            </g>
        </g>
    </g>
</svg>