<svg xmlns="http://www.w3.org/2000/svg" xmlns:xlink="http://www.w3.org/1999/xlink" version="1.1" x="0px" y="0px" viewBox="0 0 100 100" enable-background="new 0 0 66 66" xml:space="preserve"><g><g><path d="M37.7,50.5c2-2.7,8.1-2.7,10.3-2.5c0.6,0,1-0.4,1.1-0.9c0.1-0.5-0.3-1-0.9-1.1c-0.4,0-8.9-0.8-12.1,3.3    c-0.3,0.4-0.2,1.1,0.2,1.4C36.8,51,37.4,51,37.7,50.5z"/></g><g><path d="M37.3,56.7c0.4,0.3,1.1,0.2,1.4-0.2c2-2.7,8.1-2.7,10.3-2.5c0.6,0,1-0.4,1.1-0.9c0.1-0.5-0.3-1-0.9-1.1    C40.2,51.2,35.5,55.4,37.3,56.7z"/></g><g><path d="M18,48c2.2-0.2,8.2-0.2,10.3,2.5c0.3,0.4,1,0.5,1.4,0.2c0.4-0.3,0.5-1,0.2-1.4C26.7,45.2,18.2,46,17.8,46    c-0.5,0.1-1,0.5-0.9,1.1C17,47.6,17.5,48,18,48z"/></g><g><path d="M17,54c2.2-0.2,8.2-0.2,10.3,2.5c0.3,0.4,1,0.5,1.4,0.2c0.4-0.3,0.5-1,0.2-1.4C25.8,51.2,17.2,52,16.8,52    c-0.5,0.1-1,0.5-0.9,1.1C16,53.7,16.5,54.1,17,54z"/></g><g><path d="M65.1,63.6l-7.4-18.7c-0.2-0.4-0.5-0.6-0.9-0.6H53l-1.1-3.5c-0.1-0.4-0.5-0.7-0.9-0.7c-5.1-0.5-14.6-0.2-18,3.8    c-3.4-4-13-4.2-18-3.8c-0.4,0-0.7,0.3-0.9,0.7L13,44.3H9.3c-0.4,0-0.8,0.2-0.9,0.6L0.9,63.6C0.7,64.3,1.2,65,1.9,65h62.3    C64.8,65,65.3,64.3,65.1,63.6z M50.2,42.1L55.3,58c-1.6-0.5-3.3-0.8-5.2-0.8c-6.7,0-13.2,3.3-16.1,5V46C36,42,45.7,41.8,50.2,42.1    z M15.8,42.1C20.3,41.8,30,42,32,46v16.2c-2.9-1.7-9.5-5-16.1-5c-1.8,0-3.6,0.3-5.2,0.8l3.9-12.3c0,0,0,0,0,0L15.8,42.1z M10,46.3    h2.4L8.2,59.4c-0.3,0.8,0.6,1.6,1.4,1.2c1.8-0.9,3.9-1.4,6.3-1.4c5.1,0,10.2,2.2,13.4,3.8H3.3L10,46.3z M36.7,63    c3.2-1.6,8.3-3.8,13.4-3.8c2.4,0,4.5,0.5,6.3,1.4c0.4,0.2,0.8,0.1,1.1-0.1c0.3-0.3,0.4-0.7,0.3-1.1l-4.2-13.1H56L62.7,63H36.7z"/></g><g><path d="M26.1,30.3c1,0.7,1.6,1.9,1.6,3v0.3v1.3h-0.4c-0.6,0-1,0.4-1,1c0,0.6,0.4,1,1,1h0.4v0.2c0,1.1,0.9,2,2,2h6.5    c1.1,0,2-0.9,2-2v-0.2h0.4c0.6,0,1-0.4,1-1c0-0.6-0.4-1-1-1h-0.4v-1.3v-0.3c0-1.2,0.6-2.3,1.7-3.1c3.2-2.2,5.1-5.9,5.1-9.8    c0-6.6-5.4-12-12-12c-6.2,0-11.1,4.7-11.9,10.3C20.5,23.3,22.4,27.7,26.1,30.3z M36.3,37.1l-6.5,0v-2.5h6.5L36.3,37.1z M23.1,19.1    c0.6-4.7,4.7-8.6,9.9-8.6c5.5,0,10,4.5,10,10c0,3.2-1.6,6.3-4.2,8.2c-1.4,1-2.2,2.4-2.5,3.9H34V22.3c1.1,0.2,2.3-0.1,3.1-0.9    c0.4-0.4,0.4-1,0-1.4c-0.4-0.4-1-0.4-1.4,0c-0.5,0.5-1.4,0.6-2,0c-0.4-0.4-1-0.3-1.4,0c-0.5,0.5-1.4,0.5-2,0c-0.4-0.4-1-0.4-1.4,0    c-0.4,0.4-0.4,1,0,1.4c0.7,0.7,1.5,1,2.4,1c0.2,0,0.5,0,0.7-0.1v10.3h-2.3c-0.2-1.5-1.1-3-2.4-3.9C24.2,26.5,22.6,22.8,23.1,19.1z    "/></g><g><path d="M33,6.4c0.6,0,1-0.4,1-1V2c0-0.6-0.4-1-1-1c-0.6,0-1,0.4-1,1v3.4C32,6,32.5,6.4,33,6.4z"/></g><g><path d="M26.2,6.9c0.2,0.5,0.8,0.8,1.3,0.5c0.5-0.2,0.8-0.8,0.5-1.3L26.8,3c-0.2-0.5-0.8-0.8-1.3-0.5c-0.5,0.2-0.8,0.8-0.5,1.3    L26.2,6.9z"/></g><g><path d="M21.5,10.6c0.4,0.4,1,0.4,1.4,0c0.4-0.4,0.4-1,0-1.4l-2.4-2.4c-0.4-0.4-1-0.4-1.4,0c-0.4,0.4-0.4,1,0,1.4L21.5,10.6z"/></g><g><path d="M44.5,10.6l2.4-2.4c0.4-0.4,0.4-1,0-1.4c-0.4-0.4-1-0.4-1.4,0l-2.4,2.4c-0.4,0.4-0.4,1,0,1.4C43.5,11,44.1,11,44.5,10.6z"/></g><g><path d="M38.5,7.5c0.5,0.2,1.1,0,1.3-0.5l1.3-3.1c0.2-0.5,0-1.1-0.5-1.3c-0.5-0.2-1.1,0-1.3,0.5l-1.3,3.1    C37.7,6.7,38,7.3,38.5,7.5z"/></g></g></svg>