<?xml version="1.0" encoding="UTF-8"?>
<svg width="90px" height="88px" viewBox="0 0 100 100" version="1.1" xmlns="http://www.w3.org/2000/svg" xmlns:xlink="http://www.w3.org/1999/xlink">
    <!-- Generator: Sketch 55.2 (78181) - https://sketchapp.com -->
    <title>Group</title>
    <desc>Created with Sketch.</desc>
    <g id="Page-1" stroke="none" stroke-width="1" fill="none" fill-rule="evenodd">
        <g id="DESIGN-DESKTOP" transform="translate(-531.000000, -1854.000000)" fill="#64D223" fill-rule="nonzero">
            <g id="CREATIVE-LEARNING" transform="translate(524.000000, 1846.000000)">
                <g id="Group" transform="translate(7.000000, 8.000000)">
                    <path d="M56.7796054,76.9883739 C59.9718774,72.6975594 69.7083073,72.6975594 73.2198065,73.0153975 C74.1774882,73.0153975 74.8159426,72.3797213 74.9755562,71.585126 C75.1351698,70.7905307 74.4967154,69.9959354 73.5390337,69.8370164 C72.9005793,69.8370164 59.333423,68.5656639 54.2257877,75.0813452 C53.7469469,75.7170215 53.9065605,76.8294549 54.5450149,77.306212 C55.3430829,77.7829692 56.3007646,77.7829692 56.7796054,76.9883739 Z" id="Path"></path>
                    <path d="M54.5534917,83.9337167 C55.1916815,84.4097891 56.3085137,84.2510983 56.7871561,83.6163352 C59.9781053,79.3316843 69.7105002,79.3316843 73.2205443,79.6490658 C74.177829,79.6490658 74.8160189,79.0143027 74.9755663,78.2208488 C75.1351138,77.427395 74.4969239,76.6339411 73.5396392,76.4752503 C59.180368,75.2057241 51.6816375,81.8707367 54.5534917,83.9337167 Z" id="Path"></path>
                    <path d="M24.1450436,73.03552 C27.6571935,72.7157311 37.2357842,72.7157311 40.5882909,77.0328809 C41.0672204,77.6724587 42.1847227,77.8323531 42.8232954,77.3526698 C43.4618681,76.8729865 43.6215113,75.7537254 43.1425817,75.1141477 C38.034,68.5584757 24.4643299,69.8376312 23.8257572,69.8376312 C23.0275413,69.9975256 22.2293254,70.6371034 22.3889686,71.59647 C22.5486118,72.3959422 23.3468277,73.03552 24.1450436,73.03552 Z" id="Path"></path>
                    <path d="M24.1450436,79.6144673 C27.6571935,79.2946785 37.2357842,79.2946785 40.5882909,83.6118283 C41.0672204,84.251406 42.1847227,84.4113005 42.8232954,83.9316171 C43.4618681,83.4519338 43.6215113,82.3326728 43.1425817,81.693095 C38.1936432,75.1374231 24.4643299,76.4165786 23.8257572,76.4165786 C23.0275413,76.576473 22.2293254,77.2160508 22.3889686,78.1754174 C22.5486118,79.134784 23.3468277,79.7743618 24.1450436,79.6144673 Z" id="Path"></path>
                    <path d="M99.9303304,95.238649 L88.4198486,66.79098 C88.1087545,66.1824737 87.6421134,65.8782206 87.0199252,65.8782206 L81.1091373,65.8782206 L79.3981197,60.5537905 C79.2425727,59.9452843 78.6203845,59.4889045 77.9981963,59.4889045 C70.0652967,58.7282717 55.288327,59.1846514 49.9997272,65.2697143 C44.7111275,59.1846514 29.7786107,58.8803982 22.0012582,59.4889045 C21.37907,59.4889045 20.9124289,59.9452843 20.6013348,60.5537905 L18.8903172,65.8782206 L13.1350764,65.8782206 C12.5128882,65.8782206 11.8907,66.1824737 11.7351529,66.79098 L0.0691241377,95.238649 C-0.241969963,96.303535 0.535765288,97.3684211 1.62459464,97.3684211 L98.5304069,97.3684211 C99.4636892,97.3684211 100.241424,96.303535 99.9303304,95.238649 Z M76.7538199,62.531436 L84.6867194,86.719561 C82.1979666,85.9589281 79.5536668,85.5025484 76.5982728,85.5025484 C66.1766205,85.5025484 56.0660622,90.5227253 51.5551977,93.108877 L51.5551977,68.4643723 C54.6661388,62.3793094 69.7542026,62.0750563 76.7538199,62.531436 Z M23.2456346,62.531436 C30.2452519,62.0750563 45.3333157,62.3793094 48.4442567,68.4643723 L48.4442567,93.108877 C43.9333923,90.5227253 33.667287,85.5025484 23.4011817,85.5025484 C20.6013348,85.5025484 17.8014879,85.9589281 15.3127351,86.719561 L21.37907,68.0079926 C21.37907,68.0079926 21.37907,68.0079926 21.37907,68.0079926 L23.2456346,62.531436 Z M14.2239057,68.920752 L17.9570349,68.920752 L11.4240588,88.849333 C10.9574177,90.0663456 12.3573411,91.2833582 13.6017175,90.6748519 C16.4015644,89.3057127 19.6680525,88.5450799 23.4011817,88.5450799 C31.3340812,88.5450799 39.2669808,91.8918644 44.2444864,94.3258896 L3.80225334,94.3258896 L14.2239057,68.920752 Z M55.7549681,94.3258896 C60.7324737,91.8918644 68.6653733,88.5450799 76.5982728,88.5450799 C80.331402,88.5450799 83.5978901,89.3057127 86.397737,90.6748519 C87.0199252,90.979105 87.6421134,90.8269784 88.1087545,90.5227253 C88.5753957,90.0663456 88.7309427,89.4578393 88.5753957,88.849333 L82.0424196,68.920752 L85.7755488,68.920752 L96.1972012,94.3258896 L55.7549681,94.3258896 Z" id="Shape"></path>
                    <path d="M37.067487,46.009772 C38.6567874,47.059832 39.6103676,48.8599349 39.6103676,50.5100291 L39.6103676,50.9600549 L39.6103676,52.9101663 L38.9746474,52.9101663 C38.0210672,52.9101663 37.3853471,53.5102006 37.3853471,54.410252 C37.3853471,55.3103034 38.0210672,55.9103377 38.9746474,55.9103377 L39.6103676,55.9103377 L39.6103676,56.2103549 C39.6103676,57.8604492 41.0407378,59.2105263 42.7889682,59.2105263 L53.1194203,59.2105263 C54.8676507,59.2105263 56.298021,57.8604492 56.298021,56.2103549 L56.298021,55.9103377 L56.9337411,55.9103377 C57.8873213,55.9103377 58.5230414,55.3103034 58.5230414,54.410252 C58.5230414,53.5102006 57.8873213,52.9101663 56.9337411,52.9101663 L56.298021,52.9101663 L56.298021,50.9600549 L56.298021,50.5100291 C56.298021,48.7099263 57.2516011,47.059832 58.9998315,45.8597634 C64.0855925,42.5595748 67.1052632,37.0092577 67.1052632,31.1589234 C67.1052632,21.2583576 58.5230414,13.1578947 48.0336593,13.1578947 C38.1799973,13.1578947 30.3924257,20.2082976 29.1209854,28.6087776 C28.1674052,35.509172 31.1870758,42.1095491 37.067487,46.009772 Z M53.2783503,56.2103549 L42.9478982,56.2103549 L42.9478982,52.4601406 L53.2783503,52.4601406 L53.2783503,56.2103549 Z M32.2995861,29.2088119 C33.2531663,22.1584091 39.7692976,16.3080747 48.0336593,16.3080747 C56.7748111,16.3080747 63.9266625,23.0584605 63.9266625,31.3089319 C63.9266625,36.1092062 61.383782,40.759472 57.2516011,43.6096348 C55.0265807,45.1097206 53.7551404,47.2098406 53.2783503,49.4599691 L49.6229596,49.4599691 L49.6229596,34.0090862 C51.3711899,34.3091034 53.2783503,33.8590777 54.5497906,32.6590091 C55.1855107,32.0589748 55.1855107,31.1589234 54.5497906,30.5588891 C53.9140705,29.9588548 52.9604903,29.9588548 52.3247701,30.5588891 C51.53012,31.3089319 50.0997497,31.4589405 49.1461695,30.5588891 C48.5104494,29.9588548 47.5568692,30.1088634 46.921149,30.5588891 C46.1264989,31.3089319 44.6961286,31.3089319 43.7425484,30.5588891 C43.1068283,29.9588548 42.1532481,29.9588548 41.5175279,30.5588891 C40.8818078,31.1589234 40.8818078,32.0589748 41.5175279,32.6590091 C42.6300382,33.7090691 43.9014784,34.1590948 45.3318487,34.1590948 C45.6497088,34.1590948 46.1264989,34.1590948 46.4443589,34.0090862 L46.4443589,49.4599691 L42.7889682,49.4599691 C42.4711081,47.2098406 41.0407378,44.959712 38.9746474,43.6096348 C34.0478164,40.3094463 31.5049359,34.7591291 32.2995861,29.2088119 Z" id="Shape"></path>
                    <path d="M50,7.89473684 C50.7894737,7.89473684 51.3157895,7.30994152 51.3157895,6.43274854 L51.3157895,1.4619883 C51.3157895,0.584795322 50.7894737,0 50,0 C49.2105263,0 48.6842105,0.584795322 48.6842105,1.4619883 L48.6842105,6.43274854 C48.6842105,7.30994152 49.3421053,7.89473684 50,7.89473684 Z" id="Path"></path>
                    <path d="M37.6704732,9.57438919 C37.9954209,10.3424512 38.970264,10.8032884 39.7826332,10.3424512 C40.5950025,10.0352264 41.082424,9.11355199 40.5950025,8.34548998 L38.6453163,3.58350554 C38.3203686,2.81544354 37.3455255,2.35460633 36.5331562,2.81544354 C35.720787,3.12266834 35.2333654,4.04434275 35.720787,4.81240475 L37.6704732,9.57438919 Z" id="Path"></path>
                    <path d="M29.8444976,15.2511962 C30.562201,15.9688995 31.638756,15.9688995 32.3564593,15.2511962 C33.0741627,14.5334928 33.0741627,13.4569378 32.3564593,12.7392344 L28.0502392,8.43301435 C27.3325359,7.715311 26.2559809,7.715311 25.5382775,8.43301435 C24.8205742,9.1507177 24.8205742,10.2272727 25.5382775,10.9449761 L29.8444976,15.2511962 Z" id="Path"></path>
                    <path d="M67.5239234,15.2511962 L71.8301435,10.9449761 C72.5478469,10.2272727 72.5478469,9.1507177 71.8301435,8.43301435 C71.1124402,7.715311 70.0358852,7.715311 69.3181818,8.43301435 L65.0119617,12.7392344 C64.2942584,13.4569378 64.2942584,14.5334928 65.0119617,15.2511962 C65.7296651,15.9688995 66.8062201,15.9688995 67.5239234,15.2511962 Z" id="Path"></path>
                    <path d="M57.5683938,10.4065801 C58.3667288,10.7190399 59.3247307,10.4065801 59.6440646,9.62543058 L61.7197354,4.78230342 C62.0390694,4.00115388 61.7197354,3.06377443 60.9214005,2.75131462 C60.1230656,2.4388548 59.1650637,2.75131462 58.8457297,3.53246416 L56.7700589,8.37559131 C56.291058,9.15674085 56.7700589,10.0941203 57.5683938,10.4065801 Z" id="Path"></path>
                </g>
            </g>
        </g>
    </g>
</svg>