<?xml version="1.0" encoding="UTF-8"?>
<svg width="129px" height="135px" viewBox="0 0 129 135" version="1.1" xmlns="http://www.w3.org/2000/svg" xmlns:xlink="http://www.w3.org/1999/xlink">
    <!-- Generator: Sketch 55.2 (78181) - https://sketchapp.com -->
    <title>sport</title>
    <desc>Created with Sketch.</desc>
    <g id="Page-1" stroke="none" stroke-width="1" fill="none" fill-rule="evenodd">
        <g id="DESIGN-DESKTOP" transform="translate(-802.000000, -794.000000)" fill-rule="nonzero">
            <g id="sport" transform="translate(802.000000, 794.000000)">
                <path d="M69.0034614,11 L89.7038659,11 C92.6289948,11 95,13.3736536 95,16.3014592 L95,129.698541 C95,132.626611 92.6287307,135 89.7038659,135 L5.29613412,135 C2.37100519,135 0,132.626346 0,129.698541 L0,16.3017236 C0,13.3736536 2.37126931,11 5.29613412,11 L25.9965386,11" id="Path" fill="#E8834D"></path>
                <path d="M89.8096187,11 L85,11 C87.8664613,11 90.1903813,13.3736536 90.1903813,16.3014592 L90.1903813,129.698541 C90.1903813,132.626611 87.8664613,135 85,135 L89.8096187,135 C92.6763389,135 95,132.626346 95,129.698541 L95,16.3017236 C95,13.3736536 92.67608,11 89.8096187,11 Z" id="Path" fill="#D66E41"></path>
                <path d="M85,23.3466355 L85,123.653365 C85,124.397263 84.3945676,125 83.6479288,125 L11.3520712,125 C10.6051704,125 10,124.397002 10,123.653365 L10,23.3466355 C10,22.6027374 10.6054324,22 11.3520712,22 L83.6476668,22 C84.3945676,22 85,22.6029984 85,23.3466355 L85,23.3466355 Z" id="Path" fill="#F4E9D3"></path>
                <path d="M79,22 L79,125 L83.3333692,125 C84.2537137,125 85,124.397003 85,123.653368 L85,23.346632 C85,22.6027359 84.2537137,22 83.3333692,22 L79,22 Z" id="Path" fill="#E5D6BE"></path>
                <path d="M65.5118006,8.01320561 L56.7008555,8.01320561 L56.7008555,2.83677004 C56.7008555,1.26995724 55.4615399,0 53.9325313,0 L41.0672046,0 C39.5384601,0 38.2991445,1.26995724 38.2991445,2.83677004 L38.2991445,8.01320561 L29.4881994,8.01320561 C27.5617542,8.01320561 26,9.61357363 26,11.5876495 L26,21.4255561 C26,23.399632 27.5617542,25 29.4881994,25 L41.0674687,25 L53.9327954,25 L65.5118006,25 C67.4382458,25 69,23.399632 69,21.4255561 L69,11.5873789 C69,9.61330303 67.4382458,8.01320561 65.5118006,8.01320561 L65.5118006,8.01320561 Z" id="Path" fill="#FFE55A"></path>
                <path d="M52.8854941,2.8320951 L52.8854941,8 L58,8 L58,2.8320951 C58,1.26786438 56.7082301,0 55.1145059,0 L50,0 C51.5937242,0 52.8854941,1.26786438 52.8854941,2.8320951 Z" id="Path" fill="#FFD91D"></path>
                <path d="M65.2604278,8 L60,8 C62.0652721,8 63.7395722,9.50739968 63.7395722,11.3667978 L63.7395722,20.6332022 C63.7395722,22.4926003 62.0652721,24 60,24 L65.2604278,24 C67.3256999,24 69,22.4926003 69,20.6332022 L69,11.3665429 C69,9.50714479 67.3256999,8 65.2604278,8 Z" id="Path" fill="#FFD91D"></path>
                <path d="M74.9262628,38 L40.0737372,38 C38.9281959,38 38,39.1193116 38,40.5 C38,41.8806884 38.9281959,43 40.0737372,43 L74.9262628,43 C76.0715368,43 77,41.8806884 77,40.5 C77,39.1193116 76.0715368,38 74.9262628,38 Z" id="Path" fill="#E8834D"></path>
                <path d="M40.0967698,51 L59.9032302,51 C61.0614948,51 62,49.8806884 62,48.5 C62,47.1193116 61.0612245,46 59.9032302,46 L40.0967698,46 C38.9385052,46 38,47.1193116 38,48.5 C38,49.8806884 38.9385052,51 40.0967698,51 Z" id="Path" fill="#E8834D"></path>
                <path d="M29.6418285,38.605046 L22.4379097,46.1708942 L19.3215014,43.066824 C18.5469408,42.2946826 17.3076437,42.31303 16.5540239,43.1063613 C15.8004041,43.8999511 15.8178128,45.1692811 16.5928781,45.9409057 L21.1103077,50.4404121 C21.8740194,51.2014417 23.132239,51.1836111 23.8757668,50.4029421 L32.4438711,41.4039292 C33.1987523,40.6113731 33.1831097,39.3423014 32.409306,38.5693848 C31.6347453,37.7962098 30.3962051,37.8127483 29.6418285,38.605046 L29.6418285,38.605046 Z" id="Path" fill="#98DB7C"></path>
                <g id="Group" transform="translate(38.000000, 59.000000)" fill="#E8834D">
                    <path d="M36.7722245,0.218034653 L2.18453061,0.218034653 C1.04769388,0.218034653 0.12655102,1.12926733 0.12655102,2.25328713 C0.12655102,3.37730693 1.04769388,4.2885396 2.18453061,4.2885396 L36.7722245,4.2885396 C37.9087959,4.2885396 38.8302041,3.37730693 38.8302041,2.25328713 C38.8302041,1.12926733 37.9087959,0.218034653 36.7722245,0.218034653 Z" id="Path"></path>
                    <path d="M26.7768163,24.9834653 L2.2317551,24.9834653 C1.09730612,24.9834653 0.177755102,24.0740693 0.177755102,22.9521485 C0.177755102,21.8302277 1.09730612,20.9208317 2.2317551,20.9208317 L26.7768163,20.9208317 C27.9112653,20.9208317 28.8308163,21.8302277 28.8308163,22.9521485 C28.8308163,24.0740693 27.9115306,24.9834653 26.7768163,24.9834653 Z" id="Path"></path>
                    <path d="M24.7634082,32.2722772 L2.23202041,32.2722772 C1.09757143,32.2722772 0.178020408,31.3628812 0.178020408,30.2409604 C0.178020408,29.1190396 1.09757143,28.2096436 2.23202041,28.2096436 L24.7634082,28.2096436 C25.8978571,28.2096436 26.8174082,29.1190396 26.8174082,30.2409604 C26.8174082,31.3628812 25.8978571,32.2722772 24.7634082,32.2722772 L24.7634082,32.2722772 Z" id="Path"></path>
                    <path d="M25.9472041,45.6715693 L2.2317551,45.6715693 C1.09730612,45.6715693 0.177755102,44.7621733 0.177755102,43.6402525 C0.177755102,42.5183317 1.09730612,41.6089356 2.2317551,41.6089356 L25.9472041,41.6089356 C27.0816531,41.6089356 28.0012041,42.5183317 28.0012041,43.6402525 C28.0012041,44.7621733 27.0819184,45.6715693 25.9472041,45.6715693 L25.9472041,45.6715693 Z" id="Path"></path>
                    <path d="M27.9293061,52.9603812 L2.2317551,52.9603812 C1.09730612,52.9603812 0.177755102,52.0509851 0.177755102,50.9290644 C0.177755102,49.8071436 1.09730612,48.8977475 2.2317551,48.8977475 L27.9293061,48.8977475 C29.0637551,48.8977475 29.9833061,49.8071436 29.9833061,50.9290644 C29.9833061,52.0509851 29.0637551,52.9603812 27.9293061,52.9603812 Z" id="Path"></path>
                    <path d="M21.6243061,7.52101485 L2.18426531,7.52101485 C1.04742857,7.52101485 0.126285714,8.43224752 0.126285714,9.55626733 C0.126285714,10.6802871 1.04742857,11.5915198 2.18426531,11.5915198 L21.6243061,11.5915198 C22.7611429,11.5915198 23.6822858,10.6802871 23.6822858,9.55626733 C23.682551,8.43224752 22.7611429,7.52101485 21.6243061,7.52101485 L21.6243061,7.52101485 Z" id="Path"></path>
                </g>
                <path d="M29.6418285,59.6050495 L22.4379097,67.1705988 L19.3215014,64.0669096 C18.5464362,63.2947987 17.3076437,63.3131454 16.5540239,64.1067038 C15.8004041,64.9002622 15.8178128,66.1692837 16.5928781,66.9411361 L21.1103077,71.4404648 C21.8740194,72.2014643 23.132239,72.1836344 23.8757668,71.4027378 L32.4438711,62.4043389 C33.1987523,61.6118142 33.1831097,60.3427926 32.409306,59.5699066 C31.6352499,58.7962453 30.3962051,58.8125247 29.6418285,59.6050495 L29.6418285,59.6050495 Z" id="Path" fill="#98DB7C"></path>
                <path d="M29.6418285,79.6049986 L22.4379097,87.170718 L19.3215014,84.066959 C18.5469408,83.2950892 17.3076437,83.3131779 16.5540239,84.1067541 C15.8004041,84.9003303 15.8178128,86.1693804 16.5928781,86.9412502 L21.1103077,91.4404216 C21.8740194,92.2014382 23.132239,92.183608 23.8757668,91.4029522 L32.4438711,82.4043509 C33.1987523,81.6118084 33.1831097,80.3427583 32.409306,79.5695964 C31.6352499,78.7964346 30.3962051,78.812456 29.6418285,79.6049986 L29.6418285,79.6049986 Z" id="Path" fill="#98DB7C"></path>
                <path d="M29.6418285,101.60506 L22.4379097,109.170742 L19.3215014,106.06674 C18.5469408,105.294874 17.3076437,105.312963 16.5540239,106.106276 C15.8004041,106.900107 15.8178128,108.169151 16.5928781,108.941017 L21.1103077,113.440424 C21.8740194,114.201437 23.132239,114.183607 23.8757668,113.402955 L32.4438711,104.404399 C33.1987523,103.61186 33.1831097,102.342816 32.409306,101.569917 C31.6352499,100.796242 30.3962051,100.812521 29.6418285,101.60506 L29.6418285,101.60506 Z" id="Path" fill="#98DB7C"></path>
                <path d="M94.5,68 C112.681402,68 130.11274,75.6396465 128.944391,94.3291584 C127.115385,123.583575 106.692759,143.769193 94.5,131.189875 C82.3072414,143.769193 61.8846148,123.583575 60.0556087,94.3291584 C58.8872602,75.6399091 76.3185981,68 94.5,68 L94.5,68 Z" id="Path" fill="#FF4755"></path>
                <path d="M95.387088,68 C94.5892507,68 93.7932121,68.0160177 93,68.0472654 C109.819335,68.7110819 125.258321,76.4820413 124.171412,94.3307748 C122.861469,115.840477 111.759326,132.446656 101.250999,134.734039 C112.882465,137.442085 127.433937,119.152995 128.945845,94.3307748 C130.083888,75.6404543 113.100874,68 95.387088,68 L95.387088,68 Z" id="Path" fill="#FC2B3A"></path>
                <path d="M112.152999,70.1530726 C106.140955,76.1650893 95.1139592,74.8860413 95.1139592,74.8860413 C95.1139592,74.8860413 93.8349053,63.8593706 99.8469501,57.847081 C104.62334,53.0707131 112.564884,52.8962975 115.627681,53.0262221 C116.358647,53.0573385 116.942492,53.6411805 116.973608,54.372143 C117.104079,57.4351981 116.929663,65.3767047 112.152999,70.1530726 L112.152999,70.1530726 Z" id="Path" fill="#98DB7C"></path>
                <path d="M115.621312,53.0259223 C115.15566,53.0062695 114.577825,52.9937136 113.916195,53.003267 C113.890265,56.6646804 113.202977,63.1672786 109.069972,67.3003576 C105.021309,71.3490937 98.6989737,72.0912573 95.0007776,72.1439375 C94.9890408,73.8086878 95.1140517,74.8860398 95.1140517,74.8860398 C95.1140517,74.8860398 106.140676,76.1651052 112.15294,70.1530065 C116.929287,65.3765734 117.103702,57.4349584 116.973778,54.3721345 C116.942662,53.6389784 116.354455,53.0567661 115.621312,53.0259223 Z" id="Path" fill="#82D361"></path>
                <path d="M93.9207534,82 C93.831737,82 93.7417002,81.9937041 93.6514084,81.9811123 C92.5722428,81.8297486 91.8164953,80.8085025 91.9611152,79.6991139 C91.9692772,79.63222 92.4046673,75.9981789 91.2494934,71.4968786 C89.7257554,65.560902 86.2717113,60.9483743 80.9827541,57.7875743 C80.0397914,57.224092 79.7196891,55.9809157 80.2678164,55.0110861 C80.8154337,54.0409941 82.0236605,53.7117714 82.9673884,54.2752537 C90.7936983,58.9525766 93.8916764,65.752402 95.1121462,70.6332921 C96.428264,75.8963953 95.8985011,80.0679482 95.8752904,80.2431839 C95.7395977,81.2615444 94.8925381,82 93.9207534,82 L93.9207534,82 Z" id="Path" fill="#62C136"></path>
                <path d="M93.5011421,83 C87.1837365,83 82.9512484,79.2767954 82.7743463,79.1182089 C81.8911521,78.3279595 81.7413644,76.8765357 82.4392327,75.8767255 C83.1368377,74.8766173 84.4185882,74.7072995 85.3017824,75.4972508 C85.3270541,75.5193098 88.6508129,78.3842994 93.5011421,78.3842994 C98.3517345,78.3842994 101.675493,75.5193098 101.708399,75.4900965 C102.595542,74.7123671 103.875187,74.8891373 104.565421,75.8892455 C105.256708,76.8893537 105.107973,78.3306423 104.228201,79.1182089 C104.051299,79.2770935 99.818811,83 93.5011421,83 L93.5011421,83 Z" id="Path" fill="#E52940"></path>
            </g>
        </g>
    </g>
</svg>