<?xml version="1.0" encoding="UTF-8"?>
<svg width="1em" height="1em" viewBox="0 0 297 406" version="1.1" xmlns="http://www.w3.org/2000/svg" xmlns:xlink="http://www.w3.org/1999/xlink">
    <!-- Generator: Sketch 55.2 (78181) - https://sketchapp.com -->
    <title>Location</title>
    <desc>Created with Sketch.</desc>
    <g id="Page-1" stroke="currentColor" stroke-width="1" fill="currentColor" fill-rule="evenodd">
        <g id="Location" fill="currentColor">
            <path d="M148.16,-2.84217094e-14 C229.99,-2.84217094e-14 296.32,68.51 296.32,153.03 C296.32,227.58 224.45,333.5 169.02,395.78 C157.91,408.26 138.41,408.26 127.3,395.78 C71.87,333.5 -2.84217094e-14,227.58 -2.84217094e-14,153.03 C-2.84217094e-14,68.51 66.33,-2.84217094e-14 148.16,-2.84217094e-14 L148.16,-2.84217094e-14 Z M148.16,75.66 C191.99,75.66 227.5,111.17 227.5,155 C227.5,198.83 191.99,234.34 148.16,234.34 C104.33,234.34 68.82,198.83 68.82,155 C68.82,111.17 104.33,75.66 148.16,75.66 Z" id="Shape"></path>
        </g>
    </g>
</svg>