<?xml version="1.0" encoding="UTF-8"?>
<svg width="90px" height="57px" viewBox="0 0 90 57" version="1.1" xmlns="http://www.w3.org/2000/svg" xmlns:xlink="http://www.w3.org/1999/xlink">
    <!-- Generator: Sketch 55.2 (78181) - https://sketchapp.com -->
    <title>MEALS SKACK</title>
    <desc>Created with Sketch.</desc>
    <g id="Page-1" stroke="none" stroke-width="1" fill="none" fill-rule="evenodd">
        <g id="DESIGN-DESKTOP" transform="translate(-831.000000, -2110.000000)" fill="#FF3376" fill-rule="nonzero">
            <g id="MEALS-SKACK" transform="translate(831.000000, 2110.000000)">
                <path d="M90,44.55843 L82.5,44.55843 L82.5,14.85281 C82.5002825,14.5155488 82.3840729,14.1883345 82.1706619,13.9254841 L82.1713256,13.9249624 L76.5,6.90536842 L76.5,1.485281 C76.5000114,1.09135651 76.3419799,0.7135629 76.0606728,0.435016225 C75.7793658,0.15646955 75.3978282,0 75,0 L51,0 C50.6021718,0 50.2206342,0.15646955 49.9393272,0.435016225 C49.6580201,0.7135629 49.4999886,1.09135651 49.5,1.485281 L49.5,6.90536842 L43.8286744,13.9249624 L43.8293381,13.9254841 C43.6159271,14.1883345 43.4997175,14.5155488 43.5,14.85281 L43.5,15.7982452 C43.25075,15.5018945 42.9881769,15.2167861 42.7122806,14.9429201 C40.7331687,12.9832059 38.0489031,11.882248 35.25,11.882248 C32.4510969,11.882248 29.7668313,12.9832059 27.7877194,14.9429201 L27,15.7228653 L27,12.6030326 C27.0075891,9.84407565 25.9001592,7.19677913 23.9245612,5.25123696 L22.0606387,3.40560452 L19.9393612,5.50606663 L21.8032837,7.35169907 C23.2144338,8.74138812 24.0054475,10.6323391 24,12.60304 L24,15.7228727 L23.2122806,14.9429276 C21.2331687,12.9832133 18.5489031,11.8822554 15.75,11.8822554 C12.9510969,11.8822554 10.2668313,12.9832133 8.28771937,14.9429276 C5.85455065,17.3390752 4.49063512,20.5995176 4.5,23.9974772 L4.5,28.1978518 C4.49873093,32.3735779 5.68389405,36.4654273 7.92004312,40.0057634 L10.793625,44.55843 L0,44.55843 L0,47.528992 L4.91889937,47.528992 L7.576995,55.4250781 C7.78116708,56.0315724 8.3543622,56.440678 9,56.440678 L81,56.440678 C81.6456378,56.440678 82.2188329,56.0315724 82.423005,55.4250781 L85.0811006,47.528992 L90,47.528992 L90,44.55843 Z M71.6949153,45.7627119 L71.6949153,16.779661 L79.3220339,16.779661 L79.3220339,45.7627119 L71.6949153,45.7627119 Z M41.1864407,44.2372881 L18.3050847,44.2372881 L41.1864407,24.4067797 L41.1864407,44.2372881 Z M44.2372881,21.3559322 L49.8655371,21.3559322 L51.565935,24.4732557 C52.0197652,25.3078993 51.9523227,26.3012285 51.3890948,27.0778538 L51.173556,27.3742055 C49.7888016,29.2709572 49.7888016,31.7459919 51.173556,33.6427436 C51.810626,34.5153999 51.810626,35.6540916 51.173556,36.5267479 L50.9580172,36.8230996 C49.7336915,38.5110806 49.5870278,40.670161 50.5734578,42.4843169 L51.5296954,44.2372881 L44.2372881,44.2372881 L44.2372881,21.3559322 Z M52.3843671,44.2372881 L50.6444003,41.1199646 C50.1800094,40.285321 50.2490213,39.2919918 50.8253557,38.5153665 L51.0459102,38.2190148 C52.4628882,36.3222631 52.4628882,33.8472284 51.0459102,31.9504767 C50.3940153,31.0778205 50.3940153,29.9391287 51.0459102,29.0664725 L51.2664646,28.7701208 C52.5192808,27.0821398 52.6693574,24.9230593 51.6599729,23.1089034 L50.6814833,21.3559322 L56.440678,21.3559322 L56.440678,44.2372881 L52.3843671,44.2372881 Z M57.9661017,19.8305085 L45.7627119,19.8305085 L45.7627119,16.779661 L68.6440678,16.779661 L68.6440678,45.7627119 L59.4915254,45.7627119 L59.4915254,21.3559322 C59.4915371,20.9513611 59.330827,20.5633569 59.044752,20.2772819 C58.758677,19.9912069 58.3706728,19.8304968 57.9661017,19.8305085 Z M66.8737761,7.62711864 L68.6440678,12.2033898 L48.8135593,12.2033898 L52.3541187,7.62711864 L66.8737761,7.62711864 Z M74.4331379,7.62711864 L77.7966102,12.2033898 L71.8512391,12.2033898 L70.1694915,7.62711864 L74.4331379,7.62711864 Z M73.220339,6.10169492 L68.6440678,6.10169492 L68.6440678,3.05084746 L73.220339,3.05084746 L73.220339,6.10169492 Z M67.1186441,3.05084746 L67.1186441,6.10169492 L53.3898305,6.10169492 L53.3898305,3.05084746 L67.1186441,3.05084746 Z M7.62711864,27.1087047 L7.62711864,22.8973612 C7.61989062,20.2808464 8.67618845,17.7702172 10.5605949,15.9251065 C13.5351535,12.9967159 18.3577953,12.9967159 21.332354,15.9251065 L24.7088458,19.2492663 C25.2995493,19.830791 26.2572434,19.830791 26.8479468,19.2492663 L30.2244387,15.9251065 C33.1989974,12.9967159 38.0216391,12.9967159 40.9961978,15.9251065 C41.6759182,16.5971128 42.2537435,17.3620317 42.7118644,18.1962871 L42.4170334,18.1962871 L42.4170334,18.1975604 C42.0450131,18.1970622 41.6858811,18.3316924 41.4084163,18.5756673 L14.00799,42.7118644 L10.616166,37.3689458 C8.66181121,34.2926738 7.62601139,30.7371302 7.62711864,27.1087047 L7.62711864,27.1087047 Z M80.3895908,53.3898305 L11.1358329,53.3898305 L9.15254237,47.2881356 L82.3728814,47.2881356 L80.3895908,53.3898305 Z" id="Shape"></path>
            </g>
        </g>
    </g>
</svg>