<?xml version="1.0" encoding="UTF-8"?>
<svg width="1em" height="1em" viewBox="0 0 483 837" version="1.1"  fill="#000000"  xmlns="http://www.w3.org/2000/svg" xmlns:xlink="http://www.w3.org/1999/xlink">
    <!-- Generator: Sketch 55.2 (78181) - https://sketchapp.com -->
    <title>mobile</title>
    <desc>Created with Sketch.</desc>

            <path d="M209.657778,724.547556 C209.657778,735.929244 215.729835,746.446357 225.586666,752.137202 C235.443497,757.828046 247.587614,757.828046 257.444445,752.137202 C267.301276,746.446357 273.373333,735.929244 273.373333,724.547556 C273.373333,713.165867 267.301276,702.648754 257.444445,696.95791 C247.587614,691.267065 235.443497,691.267065 225.586666,696.95791 C215.729835,702.648754 209.657778,713.165867 209.657778,724.547556 Z" id="Path"></path>
            <path d="M399.325333,0.92088889 L83.592,0.92088889 C37.6257778,0.92088889 0.19288889,38.3537778 0.19288889,84.32 L0.19288889,752.764444 C0.19288889,798.730667 37.6257778,836.163556 83.592,836.163556 L399.325333,836.163556 C445.291556,836.163556 482.724444,798.730667 482.724444,752.764444 L482.724444,84.32 C482.724444,38.3537778 445.291556,0.92088889 399.325333,0.92088889 L399.325333,0.92088889 Z M432.662222,752.764444 C432.662222,771.082667 417.757333,786.101333 399.325333,786.101333 L83.592,786.101333 C65.2737778,786.101333 50.2551111,771.196444 50.2551111,752.764444 L50.2551111,84.32 C50.2551111,66.0017778 65.16,50.9831111 83.592,50.9831111 L146.624889,50.9831111 L149.696889,67.0257778 C151.403556,75.7866667 160.164444,82.272 170.404444,82.272 L312.399111,82.272 C322.752889,82.272 331.513778,75.7866667 333.106667,67.0257778 L336.178667,50.9831111 L399.211556,50.9831111 C417.529778,50.9831111 432.548444,65.888 432.548444,84.32 L432.548444,752.764444 L432.662222,752.764444 Z" id="Shape"></path>

</svg>