<?xml version="1.0" encoding="UTF-8"?>
<svg width="83px" height="78px" viewBox="0 0 83 78" version="1.1" xmlns="http://www.w3.org/2000/svg" xmlns:xlink="http://www.w3.org/1999/xlink">
    <!-- Generator: Sketch 55.2 (78181) - https://sketchapp.com -->
    <title>Shape</title>
    <desc>Created with Sketch.</desc>
    <g id="Page-1" stroke="none" stroke-width="1" fill="none" fill-rule="evenodd">
        <g id="DESIGN-DESKTOP" transform="translate(-834.000000, -1856.000000)" fill="#CCBA00" fill-rule="nonzero">
            <g id="Naptime" transform="translate(834.000000, 1856.000000)">
                <path d="M42.50978,18.3628628 L42.50978,11.657323 C45.3385665,11.1415123 47.4339638,8.7687828 47.4339638,5.88024258 C47.4339638,2.57905376 44.7099473,0 41.4620814,0 C38.2142155,0 35.4901989,2.68221591 35.4901989,5.88024258 C35.4901989,8.7687828 37.6903661,11.2446744 40.4143827,11.657323 L40.4143827,18.3628628 C35.4901989,18.4660249 30.7755549,19.18816 26.2704506,20.4261058 C26.2704506,20.4261058 26.2704506,20.4261058 26.2704506,20.4261058 C26.0609108,20.4261058 25.8513711,20.529268 25.7466012,20.6324301 C15.1648446,23.7272946 5.94509627,29.8138615 0.182753554,37.9636714 C-0.131556048,38.4794821 -0.0267861808,39.0984551 0.392293289,39.4079415 C0.601833025,39.5111037 0.81137276,39.6142658 1.02091249,39.6142658 C1.3352221,39.6142658 1.6495317,39.5111037 1.85907144,39.2016172 C3.84969892,36.313077 6.36417574,33.7340232 9.0881923,31.4644559 L9.0881923,53.5411561 L7.51664428,56.5328585 L3.84969892,57.0486692 C3.43061945,57.1518314 3.11630985,57.3581557 3.01153998,57.7708043 C2.90677011,58.1834529 3.01153998,58.5961015 3.32584958,58.8024258 L5.94509627,61.3814796 L5.31647706,64.9921548 C5.2117072,65.4048034 5.42124693,65.817452 5.73555654,66.0237763 C6.04986614,66.2301006 6.46894561,66.3332628 6.88802508,66.1269385 L10.135891,64.4763441 L13.3837569,66.1269385 C13.4885267,66.2301006 13.6980665,66.2301006 13.9076062,66.2301006 C14.1171459,66.2301006 14.3266857,66.1269385 14.5362254,66.0237763 C14.850535,65.817452 15.0600747,65.4048034 14.9553049,64.9921548 L14.2219158,61.3814796 L16.8411625,58.8024258 C17.1554721,58.4929394 17.260242,58.0802907 17.1554721,57.7708043 C17.0507022,57.3581557 16.7363926,57.1518314 16.3173132,57.0486692 L12.6503678,56.5328585 L11.0788198,53.5411561 L11.0788198,29.8138615 C15.1648446,26.8221591 19.9842585,24.5525918 25.117982,22.9019974 L25.117982,45.5976705 L23.6512039,48.5893729 L19.9842585,49.1051837 C19.5651791,49.2083458 19.2508695,49.4146701 19.1460996,49.8273187 C19.0413297,50.2399673 19.1460996,50.6526159 19.4604092,50.8589402 L22.0796559,53.437994 L21.4510367,57.0486692 C21.3462668,57.4613178 21.5558065,57.8739664 21.8701161,58.0802907 C22.1844257,58.286615 22.6035052,58.3897772 23.0225847,58.1834529 L26.2704506,56.5328585 L29.5183165,58.1834529 C29.6230863,58.1834529 29.7278562,58.1834529 29.9373959,58.1834529 C30.1469357,58.1834529 30.3564754,58.0802907 30.5660151,57.9771286 C30.8803248,57.7708043 31.0898645,57.3581557 30.9850946,56.9455071 L30.3564754,53.3348318 L32.9757221,50.7557781 C33.2900317,50.4462916 33.3948016,50.033643 33.2900317,49.7241566 C33.1852618,49.311508 32.8709522,49.1051837 32.4518728,49.0020215 L28.7849274,48.4862107 L27.2133794,45.4945084 L27.2133794,22.2830245 C31.4041741,21.1482409 35.9092784,20.529268 40.4143827,20.4261058 L40.4143827,64.3731819 L38.8428347,67.3648843 L35.1758893,67.880695 C34.7568098,67.9838572 34.4425002,68.1901815 34.3377304,68.6028301 C34.2329605,69.0154787 34.3377304,69.4281273 34.65204,69.6344516 L37.2712867,72.2135054 L36.6426675,75.8241806 C36.5378976,76.2368292 36.7474373,76.6494778 37.0617469,76.8558021 C37.3760565,77.0621264 37.795136,77.1652886 38.2142155,76.9589643 L41.4620814,75.3083699 L44.7099473,76.9589643 C44.8147171,77.0621264 45.0242569,77.0621264 45.2337966,77.0621264 C45.4433363,77.0621264 45.6528761,76.9589643 45.8624158,76.8558021 C46.1767254,76.6494778 46.3862651,76.2368292 46.2814953,75.8241806 L45.6528761,72.2135054 L48.2721228,69.6344516 C48.5864324,69.3249652 48.6912022,68.9123166 48.5864324,68.6028301 C48.4816625,68.1901815 48.1673529,67.9838572 47.7482734,67.880695 L44.0813281,67.3648843 L42.50978,64.3731819 L42.50978,20.4261058 C47.6435036,20.529268 52.5676873,21.3545652 57.1775615,22.6956731 L57.1775615,36.1067527 C57.1775615,36.2099148 57.1775615,36.2099148 57.1775615,36.313077 L55.6060135,39.4079415 L51.9390681,39.9237523 C51.5199887,40.0269144 51.2056791,40.2332387 51.1009092,40.6458873 C50.9961393,41.0585359 51.1009092,41.4711845 51.4152188,41.6775088 L54.0344655,44.2565626 L53.4058463,47.8672378 C53.3010764,48.2798864 53.5106161,48.6925351 53.8249257,48.8988594 C54.0344655,49.0020215 54.2440052,49.1051837 54.453545,49.1051837 C54.6630847,49.1051837 54.7678546,49.1051837 54.9773943,49.0020215 L58.2252602,47.3514271 L61.4731261,49.0020215 C61.7874357,49.2083458 62.2065152,49.1051837 62.6255946,48.8988594 C62.9399042,48.6925351 63.149444,48.2798864 63.0446741,47.8672378 L62.4160549,44.2565626 L65.0353016,41.6775088 C65.3496112,41.3680224 65.454381,40.9553738 65.3496112,40.6458873 C65.2448413,40.2332387 64.9305317,40.0269144 64.5114522,39.9237523 L60.8445069,39.4079415 L59.2729589,36.313077 C59.2729589,36.2099148 59.2729589,36.2099148 59.2729589,36.1067527 L59.2729589,23.314646 C63.9876029,24.9652404 68.3879373,27.2348077 72.1596526,30.123348 C72.1596526,30.123348 72.1596526,30.123348 72.1596526,30.2265101 L72.1596526,52.2000482 L70.5881046,55.1917505 L66.9211592,55.7075613 C66.5020797,55.8107234 66.1877701,56.0170477 66.0830003,56.4296963 C65.9782304,56.8423449 66.0830003,57.2549935 66.3973099,57.4613178 L69.0165565,60.0403716 L68.3879373,63.6510469 C68.2831675,64.0636955 68.4927072,64.4763441 68.8070168,64.6826684 C69.1213264,64.8889927 69.5404059,64.9921548 69.9594854,64.7858305 L73.2073512,63.1352361 L76.4552171,64.7858305 C76.559987,64.8889927 76.7695267,64.8889927 76.9790665,64.8889927 C77.1886062,64.8889927 77.3981459,64.7858305 77.6076857,64.6826684 C77.9219953,64.4763441 78.131535,64.0636955 78.0267652,63.6510469 L77.3981459,60.0403716 L80.0173926,57.4613178 C80.3317022,57.1518314 80.4364721,56.7391828 80.3317022,56.4296963 C80.2269324,56.0170477 79.9126228,55.8107234 79.4935433,55.7075613 L75.8265979,55.1917505 L74.2550499,52.2000482 L74.2550499,31.7739424 C76.8742966,33.9403475 79.1792337,36.4162391 81.0650913,39.0984551 C81.3794009,39.6142658 82.0080201,39.717428 82.5318695,39.3047794 C83.0557188,38.9952929 83.1604887,38.37632 82.7414092,37.8605092 C74.4645897,26.1000241 59.0634191,18.6723492 42.50978,18.3628628 Z M11.6969112,59.2857143 L13.8333333,59.5434783 L12.3378378,60.7463768 C12.1241956,60.9182195 12.0173745,61.2619048 12.0173745,61.5196687 L12.3378378,63.2380952 L10.4150579,62.4648033 C10.3082368,62.378882 10.0945946,62.378882 9.88095238,62.378882 C9.66731017,62.378882 9.56048906,62.378882 9.34684685,62.4648033 L7.42406692,63.2380952 L7.74453024,61.5196687 C7.85135135,61.2619048 7.63770914,60.9182195 7.42406692,60.7463768 L5.92857143,59.5434783 L8.06499356,59.2857143 C8.38545689,59.2857143 8.70592021,59.0279503 8.91956242,58.8561077 L9.88095238,57.3095238 L10.8423423,58.8561077 C11.0559846,59.1138716 11.3764479,59.2857143 11.6969112,59.2857143 Z M27.506435,51.3809524 L29.6428571,51.6387164 L28.1473616,52.8416149 C27.9337194,53.0134576 27.8268983,53.3571429 27.8268983,53.6149068 L28.1473616,55.3333333 L26.2245817,54.5600414 C26.1177606,54.4741201 25.9041184,54.4741201 25.6904762,54.4741201 C25.476834,54.4741201 25.3700129,54.4741201 25.1563707,54.5600414 L23.2335907,55.3333333 L23.5540541,53.6149068 C23.6608752,53.3571429 23.4472329,53.0134576 23.2335907,52.8416149 L21.7380952,51.6387164 L23.8745174,51.3809524 C24.1949807,51.3809524 24.515444,51.1231884 24.7290862,50.9513458 L25.6904762,49.4047619 L26.6518662,50.9513458 C26.8655084,51.1231884 27.0791506,51.2950311 27.506435,51.3809524 Z M37.547619,5.87587302 C37.547619,3.66253968 39.3635779,1.97619048 41.5,1.97619048 C43.6364221,1.97619048 45.452381,3.76793651 45.452381,5.87587302 C45.452381,7.98380952 43.7432432,9.88095238 41.5,9.88095238 C39.2567568,9.88095238 37.547619,8.08920635 37.547619,5.87587302 Z M43.3159588,69.1666667 L45.452381,69.4244306 L43.9568855,70.6273292 C43.7432432,70.7991718 43.6364221,71.1428571 43.6364221,71.4006211 L43.9568855,73.1190476 L42.0341055,72.3457557 C41.9272844,72.2598344 41.7136422,72.2598344 41.5,72.2598344 C41.2863578,72.2598344 41.1795367,72.2598344 40.9658945,72.3457557 L39.0431145,73.1190476 L39.3635779,71.4006211 C39.470399,71.1428571 39.2567568,70.7991718 39.0431145,70.6273292 L37.547619,69.4244306 L39.6840412,69.1666667 C40.0045045,69.1666667 40.3249678,68.9089027 40.53861,68.73706 L41.5,67.1904762 L42.46139,68.73706 C42.6750322,68.994824 42.9954955,69.1666667 43.3159588,69.1666667 Z M61.072407,41.5 L63.2380952,41.757764 L61.7221135,42.9606625 C61.3972603,43.1325052 61.2889759,43.4761905 61.3972603,43.7339545 L61.7221135,45.452381 L59.7729941,44.679089 C59.6647097,44.5931677 59.4481409,44.5931677 59.2315721,44.5931677 C59.0150033,44.5931677 58.9067189,44.5931677 58.69015,44.679089 L56.7410307,45.452381 L57.0658839,43.7339545 C57.1741683,43.4761905 56.9575995,43.1325052 56.7410307,42.9606625 L55.3333333,41.757764 L57.4990215,41.5 C57.8238748,41.5 58.148728,41.242236 58.3652968,41.0703934 L59.3398565,39.5238095 L60.3144162,41.0703934 C60.4227006,41.3281573 60.7475538,41.5 61.072407,41.5 Z M74.9057404,57.3095238 L77.0714286,57.5672878 L75.5554468,58.7701863 C75.338878,58.942029 75.2305936,59.2857143 75.2305936,59.5434783 L75.5554468,61.2619048 L73.6063275,60.4886128 C73.2814742,60.3167702 72.956621,60.3167702 72.6317678,60.4886128 L70.6826484,61.2619048 L71.0075016,59.5434783 C71.115786,59.2857143 70.8992172,58.942029 70.6826484,58.7701863 L69.1666667,57.5672878 L71.3323549,57.3095238 C71.6572081,57.3095238 71.9820613,57.0517598 72.1986301,56.8799172 L73.1731898,55.3333333 L74.1477495,56.8799172 C74.2560339,57.0517598 74.5808871,57.2236025 74.9057404,57.3095238 Z" id="Shape"></path>
            </g>
        </g>
    </g>
</svg>