<?xml version="1.0" encoding="UTF-8"?>
<svg width="129px" height="129px" viewBox="0 0 129 129" version="1.1" xmlns="http://www.w3.org/2000/svg" xmlns:xlink="http://www.w3.org/1999/xlink">
    <!-- Generator: Sketch 55.2 (78181) - https://sketchapp.com -->
    <title>kid-and-baby</title>
    <desc>Created with Sketch.</desc>
    <g id="Page-1" stroke="none" stroke-width="1" fill="none" fill-rule="evenodd">
        <g id="DESIGN-DESKTOP" transform="translate(-1104.000000, -797.000000)" fill-rule="nonzero">
            <g id="kid-and-baby" transform="translate(1104.000000, 797.000000)">
                <path d="M104.357082,129 C98.2773536,129 92.8051684,125.429571 90.4083841,119.907045 L80.0606803,88.5447272 C78.8713938,85.7835892 76.1336571,84 73.0881021,84 L64,84 L64,69 L71.7541384,69 C80.8718335,69 89.0855494,74.3540177 92.6756672,82.6376819 L101.052271,109.455523 C102.241558,112.216661 104.979295,114.00025 108.02485,114.00025 L121.412544,114.00025 C125.595281,114.00025 129,117.365668 129,121.500125 C129,125.634582 125.595281,129 121.412544,129 L104.357082,129 L104.357082,129 Z" id="Path" fill="#48A7E6"></path>
                <rect id="Rectangle" fill="#B37447" x="26" y="99" width="23" height="7"></rect>
                <rect id="Rectangle" fill="#995C3D" x="38" y="99" width="11" height="7"></rect>
                <rect id="Rectangle" fill="#B37447" x="26" y="115" width="23" height="7"></rect>
                <rect id="Rectangle" fill="#995C3D" x="38" y="115" width="11" height="7"></rect>
                <path d="M26.5,129 C24.5653044,129 23,127.285383 23,125.166709 L23,86.8332907 C23,84.7143619 24.5655377,83 26.5,83 C28.4344623,83 30,84.7146175 30,86.8332907 L30,125.166709 C30,127.285638 28.4346956,129 26.5,129 Z" id="Path" fill="#7F838C"></path>
                <g id="Group" transform="translate(46.000000, 83.000000)" fill="#757982">
                    <path d="M3.72322314,45.9966961 C1.66760331,45.9966961 0.00446280992,44.2916464 0.00446280992,42.1847956 L0.00446280992,4.06528177 C0.00446280992,1.9581768 1.66785124,0.253381215 3.72322314,0.253381215 C5.77884298,0.253381215 7.44198347,1.95843094 7.44198347,4.06528177 L7.44198347,42.1847956 C7.4422314,44.2919006 5.77884298,45.9966961 3.72322314,45.9966961 Z" id="Path"></path>
                    <path d="M26.036281,38.372895 L22.3175207,38.372895 L22.3175207,4.06528177 C22.3175207,1.9581768 20.6541322,0.253381215 18.5987603,0.253381215 C16.5433884,0.253381215 14.88,1.95843094 14.88,4.06528177 L14.88,42.1847956 C14.88,44.2919006 16.5433884,45.9966961 18.5987603,45.9966961 L26.036281,45.9966961 C28.0919008,45.9966961 29.7550413,44.2916464 29.7550413,42.1847956 C29.7550413,40.0776906 28.0916529,38.372895 26.036281,38.372895 Z" id="Path"></path>
                </g>
                <path d="M11.25,83 C9.17711181,83 7.5,84.7146175 7.5,86.8332907 L7.5,121.333419 L3.75,121.333419 C1.67711181,121.333419 0,123.048036 0,125.166709 C0,127.285638 1.67736182,129 3.75,129 L11.25,129 C13.3228882,129 15,127.285383 15,125.166709 L15,86.8335463 C15,84.7146175 13.3228882,83 11.25,83 Z" id="Path" fill="#7F838C"></path>
                <rect id="Rectangle" fill="#F9BC35" x="8" y="30" width="60" height="60"></rect>
                <rect id="Rectangle" fill="#F39E31" x="38" y="30" width="30" height="60"></rect>
                <path d="M38,46 C29.7503375,46 23,52.7498375 23,61 C23,69.2496625 29.7503375,76 38,76 C46.2496625,76 53,69.2496625 53,61 C53,52.7498375 46.2496625,46 38,46 Z" id="Path" fill="#995C3D"></path>
                <path d="M53,61 C53,69.2496625 46.2496625,76 38,76 L38,46 C46.2496625,46 53,52.7498375 53,61 Z" id="Path" fill="#804D33"></path>
                <path d="M73.7190793,31.4749495 L39.9749537,0.975044903 C39.2997862,0.299763805 38.3998962,0 37.5002561,0 C36.6006161,0 35.7004761,0.299763805 35.0255586,0.975044903 L1.28118301,31.4749495 C0.0815796323,32.4499944 -0.293374539,34.0995704 0.231561301,35.5998895 C0.831238005,37.0249551 2.18082305,38 3.75563057,38 L71.2438818,38 C72.8189393,38 74.1682744,37.0249551 74.7679511,35.5998895 C75.2936368,34.0995704 74.9186827,32.4499944 73.7190793,31.4749495 Z" id="Path" fill="#E55639"></path>
                <path d="M75.7653432,35.5998895 C75.157667,37.0249551 73.7900788,38 72.1942637,38 L38,38 L38,0 C38.9118943,0 39.8237886,0.299763805 40.5077094,0.975044903 L74.7019731,31.4749495 C75.9173256,32.4499944 76.2972816,34.0995704 75.7653432,35.5998895 Z" id="Path" fill="#CF4529"></path>
            </g>
        </g>
    </g>
</svg>