<?xml version="1.0" encoding="UTF-8"?>
<svg width="123px" height="123px" viewBox="0 0 123 123" version="1.1" xmlns="http://www.w3.org/2000/svg" xmlns:xlink="http://www.w3.org/1999/xlink">
    <!-- Generator: Sketch 55.2 (78181) - https://sketchapp.com -->
    <title>ROCKET</title>
    <desc>Created with Sketch.</desc>
    <g id="Page-1" stroke="none" stroke-width="1" fill="none" fill-rule="evenodd">
        <g id="DESIGN-DESKTOP" transform="translate(-1195.000000, -1698.000000)" fill="#0051FF" fill-rule="nonzero">
            <g id="ROCKET" transform="translate(1256.500000, 1759.500000) scale(-1, 1) translate(-1256.500000, -1759.500000) translate(1195.000000, 1698.000000)">
                <path d="M56.1107924,27.0150752 C52.7433655,25.6699544 38.3091504,21.2944424 22.4500311,37.1734151 C22.0643032,37.5584054 21.9127136,38.1182548 22.0492944,38.6458341 C22.1858751,39.1726628 22.5911145,39.5876719 23.114924,39.737015 L45.3415552,46.0780975 L48.322879,49.0627102 L41.3086725,56.0844676 C40.7083178,56.6840918 40.7083178,57.6566988 41.3086725,58.256323 L64.803553,81.7767524 C65.0917232,82.0656828 65.4819537,82.2277839 65.8901949,82.2277839 C66.2984361,82.2277839 66.6886665,82.0656826 66.9768368,81.7767524 L73.9886043,74.7574341 L76.8590501,77.6312589 L83.1939177,99.8840534 C83.3440063,100.40788 83.7582511,100.813884 84.2865633,100.950469 C84.4141386,100.98424 84.5432149,101 84.6722912,101 C85.0745289,101 85.4677611,100.841651 85.7589331,100.548969 C101.391981,84.8995453 97.3701678,70.6368 95.9643999,67.0027507 C127.676635,39.9754764 122.750912,2.05318363 122.68825,1.61547301 C122.590693,0.940051507 122.06088,0.408719935 121.38398,0.311909486 C120.949848,0.249995696 83.1063034,-4.6778611 56.1107924,27.0150752 Z M54.0624572,29.538994 C50.9818873,33.458409 48.0667901,37.8847652 45.3918347,42.8964868 L26.5444499,37.5193808 C39.158277,26.1518488 50.2310687,28.2801772 54.0624572,29.538994 Z M65.8901949,78.5159674 L44.5670974,57.1703953 L50.494099,51.2365357 L71.8171965,72.5835148 L65.8901949,78.5159674 Z M85.4122282,96.4484093 L80.0829547,77.7274128 C85.0842844,75.0570586 89.5017693,72.1460856 93.4158941,69.0703847 C94.6331133,73.0554657 96.4944004,84.0956998 85.4122282,96.4484093 Z M119.767525,3.2357342 C120.058697,6.64886434 120.516467,17.0375982 116.938353,29.3888067 C112.977514,43.0555862 103.113686,61.9854006 78.6237177,75.0495541 L48.0326449,44.4229395 C70.9466822,1.36106414 112.264592,2.62110052 119.767525,3.2357342 Z" id="Shape"></path>
                <path d="M96.999263,38 C100.207861,38 103.221908,36.699258 105.490182,34.3384536 C105.490182,34.337687 105.490182,34.337687 105.491656,34.337687 C110.169694,29.464312 110.169694,21.535688 105.490182,16.6615464 C103.221908,14.300742 100.207861,13 96.999263,13 C93.7921394,13 90.7780917,14.300742 88.5083442,16.662313 C83.8303063,21.535688 83.8303063,29.464312 88.5098181,34.3384536 C90.7780917,36.699258 93.7921394,38 96.999263,38 Z M90.6439703,18.8813159 C92.3418592,17.1130121 94.5998158,16.1395634 96.999263,16.1395634 C99.4001842,16.1395634 101.658141,17.1130121 103.354556,18.8805495 C106.8594,22.5305986 106.8594,28.4694016 103.35603,32.1186843 C101.658141,33.8869881 99.4001842,34.8604367 96.999263,34.8604367 C94.5998157,34.8604367 92.3418592,33.8869881 90.6454442,32.1194506 C87.1406005,28.4694014 87.1406005,22.5305984 90.6439703,18.8813159 Z" id="Shape"></path>
                <path d="M40.4000994,102.446191 L22.4462072,120.400191 C21.8512643,120.995113 21.8512643,121.958887 22.4462072,122.553808 C22.7436787,122.851269 23.1333664,123 23.523054,123 C23.9127415,123 24.3024294,122.85127 24.5999007,122.553808 L42.5537928,104.599809 C43.1487357,104.004887 43.1487357,103.041113 42.5537928,102.446191 C41.9588498,101.85127 40.9950424,101.85127 40.4000994,102.446191 Z" id="Path"></path>
                <path d="M1.53615354,123 C1.92919289,123 2.32223223,122.849985 2.62226208,122.549955 L44.549955,80.6222622 C45.150015,80.0222022 45.150015,79.050105 44.549955,78.450045 C43.949895,77.849985 42.9777978,77.849985 42.3777378,78.450045 L0.450045006,120.377738 C-0.150015002,120.977798 -0.150015002,121.949895 0.450045006,122.549955 C0.750074857,122.849985 1.1431142,123 1.53615354,123 Z" id="Path"></path>
                <path d="M0.446238846,100.553777 C0.743731411,100.851259 1.13344671,101 1.52316185,101 C1.912877,101 2.30259245,100.851259 2.60008486,100.553777 L20.5537612,82.5999929 C21.1487463,82.0050288 21.1487463,81.0411871 20.5537612,80.446223 C19.958776,79.851259 18.9949001,79.851259 18.399915,80.446223 L0.446238846,98.400007 C-0.148746282,98.9949711 -0.148746282,99.9588128 0.446238846,100.553777 Z" id="Path"></path>
                <path d="M49.1263491,112.695809 C49.3601718,113.232806 49.8824772,113.592054 50.4731073,113.622803 L60.1251277,114.1268 L65.1857197,122.268004 C65.4711657,122.725502 65.9737327,123 66.5112214,123 C66.5582896,123 66.6068761,122.99775 66.6554626,122.99325 C67.2445744,122.93925 67.7516965,122.559752 67.9627443,122.013756 L71.4169438,113.103056 L80.8078116,110.873319 C81.3832585,110.73682 81.8311656,110.289072 81.961742,109.719076 C82.0923183,109.148329 81.8827889,108.554332 81.422735,108.186084 L73.9054859,102.173368 L74.6494673,92.6551727 C74.6950172,92.072426 74.4019796,91.5144291 73.8933393,91.2159309 C73.384699,90.9166826 72.7515555,90.9294326 72.2520251,91.2481807 L64.1547741,96.4441512 L55.2209235,92.7916719 C54.6728065,92.5674232 54.0457364,92.6701726 53.5993475,93.0564204 C53.154477,93.4426682 52.9707591,94.0449148 53.1241104,94.6096617 L55.6354273,103.833109 L49.3723183,111.092318 C48.9881811,111.537815 48.8925263,112.158812 49.1263491,112.695809 Z M58.5324,105.210851 C58.8649142,104.825353 58.9833439,104.303356 58.8512491,103.815109 L56.947264,96.8221488 L63.7205317,99.5911331 C64.1912138,99.784632 64.731739,99.7351323 65.1629447,99.4606339 L71.3076239,95.5179064 L70.7428055,102.741115 C70.7033289,103.245112 70.9174134,103.73561 71.3152157,104.053608 L77.0165429,108.614332 L69.8955777,110.305572 C69.3975657,110.423322 68.9891351,110.77657 68.8069355,111.249067 L66.1862989,118.007278 L62.347962,111.831814 C62.0792176,111.401316 61.6146088,111.128318 61.1044501,111.102068 L53.7800288,110.71957 L58.5324,105.210851 Z" id="Shape"></path>
                <path d="M0.126354864,21.6957085 C0.360188322,22.2327107 0.882517693,22.5919621 1.47317501,22.6227122 L11.1241211,23.1267142 L16.1879828,31.2679971 C16.4719235,31.725499 16.9745137,32 17.512027,32 C17.5590974,32 17.6076861,31.9977501 17.6562749,31.99325 C18.2454138,31.9392499 18.7525592,31.5589983 18.9636167,31.0129961 L22.4179752,22.1029603 L31.8077567,19.8732012 C32.3832301,19.7367007 32.8311578,19.2889489 32.9617402,18.7189467 C33.0923226,18.1481944 32.8827835,17.5541919 32.4227084,17.1859405 L24.9066317,11.1731662 L25.649129,1.65412794 C25.694681,1.07137565 25.4016299,0.514123356 24.8929662,0.215622213 C24.3843025,-0.082129053 23.7511299,-0.0716289147 23.2515765,0.247872352 L15.1539528,5.44389327 L6.22120952,1.79137855 C5.6730673,1.56712763 5.0459684,1.669878 4.59955895,2.05612964 C4.15466797,2.44238113 3.97094159,3.04388361 4.1242999,3.60938594 L6.63421398,12.832173 L0.372335051,20.0929523 C-0.0118193396,20.5377039 -0.107478595,21.1587063 0.126354864,21.6957085 Z M9.53132046,14.2099285 C9.86384993,13.8251769 9.98228512,13.3031749 9.85018428,12.8149229 L7.94611147,5.82189471 L14.7196909,8.59090589 C15.1903947,8.7836567 15.7309448,8.73415644 16.1621703,8.46040543 L22.3071323,4.5176396 L21.7438062,11.7416687 C21.7043278,12.2449207 21.9184221,12.7354227 22.3162428,13.053424 L28.0163138,17.6141923 L20.895021,19.3054491 C20.396986,19.4231997 19.9885366,19.776451 19.8063287,20.2497029 L17.1870899,27.0072302 L13.3455396,20.8317053 C13.0783013,20.4012037 12.6136711,20.1282025 12.103489,20.1019523 L4.78024904,19.7194509 L9.53132046,14.2099285 Z" id="Shape"></path>
                <path d="M111.5,93 C105.158593,93 100,98.1584 100,104.499618 C100,110.840836 105.158593,116 111.5,116 C117.841407,116 123,110.840836 123,104.499618 C123,98.1584 117.841407,93 111.5,93 Z M111.5,112.87027 C106.881685,112.87027 103.12568,109.115511 103.12568,104.499618 C103.12568,99.8844888 106.881685,96.1297299 111.5,96.1297299 C116.118315,96.1297299 119.87432,99.8844888 119.87432,104.499618 C119.87432,109.115511 116.118315,112.87027 111.5,112.87027 Z" id="Shape"></path>
                <path d="M29,59.5003821 C29,53.1591641 23.840223,48 17.4992369,48 C11.1582509,48 6,53.1591641 6,59.5003821 C6,65.8416 11.1582509,71 17.4992369,71 C23.840223,71 29,65.8416 29,59.5003821 Z M17.4992369,67.8702701 C12.8812288,67.8702701 9.12547277,64.1155111 9.12547277,59.5003821 C9.12547277,54.8844889 12.8812288,51.1297299 17.4992369,51.1297299 C22.117245,51.1297299 25.8745272,54.8844889 25.8745272,59.5003821 C25.8745272,64.1155111 22.117245,67.8702701 17.4992369,67.8702701 Z" id="Shape"></path>
            </g>
        </g>
    </g>
</svg>