<?xml version="1.0" encoding="UTF-8"?>
<svg width="126px" height="122px" viewBox="0 0 126 122" version="1.1" xmlns="http://www.w3.org/2000/svg" xmlns:xlink="http://www.w3.org/1999/xlink">
    <!-- Generator: Sketch 55.2 (78181) - https://sketchapp.com -->
    <title>noun_certified_720125</title>
    <desc>Created with Sketch.</desc>
    <g id="Page-1" stroke="none" stroke-width="1" fill="none" fill-rule="evenodd">
        <g id="DESIGN-DESKTOP" transform="translate(-1099.000000, -2267.000000)" fill="#FFFFFF" fill-rule="nonzero">
            <g id="noun_certified_720125" transform="translate(1099.000000, 2267.000000)">
                <path d="M77.9481493,45.3131481 L56.7741628,64.3207109 L48.4954178,55.0119455 C46.4344001,52.8534066 43.0482076,52.7277048 40.8353244,54.7275886 C38.6224412,56.7274723 38.3774644,60.1348278 40.281149,62.4355559 L55.8972864,80 L85.2726464,53.6078301 C87.4408633,51.5409416 87.5870494,48.1108699 85.6026769,45.8640856 C83.6183043,43.6173013 80.2220391,43.3675061 77.935254,45.300147 L77.9481493,45.3131481 Z" id="Path"></path>
                <path d="M117.707143,43.0312324 C115.727143,36.8923901 117.707143,28.754855 113.978571,23.5634451 C110.25,18.3720352 101.918571,17.7360874 96.8014286,13.9852938 C91.6842857,10.2345001 88.5471429,2.47334222 82.4785714,0.487627921 C76.6028571,-1.43319376 69.5057143,2.94056912 63,2.94056912 C56.4942857,2.94056912 49.3971429,-1.43319376 43.5214286,0.487627921 C37.4528571,2.47334222 34.2642857,10.3642853 29.1985714,14.0112508 C24.1328571,17.6582163 15.75,18.4369278 12.0342857,23.6023807 C8.31857143,28.7678336 10.2857143,36.9053686 8.29285714,43.0312324 C6.42857143,48.9624182 0,54.4133986 0,60.9805322 C0,67.5476658 6.42857143,72.9986462 8.29285714,78.9298321 C10.2728571,85.0686743 8.29285714,93.2062094 12.0214286,98.3976193 C15.75,103.589029 24.0814286,104.224977 29.1985714,107.975771 C34.3157143,111.726564 37.44,119.513679 43.5214286,121.512372 C49.3842857,123.433194 56.4942857,119.059431 63,119.059431 C69.5057143,119.059431 76.6028571,123.433194 82.4785714,121.512372 C88.56,119.513679 91.7485714,111.700607 96.8014286,107.975771 C101.854286,104.250934 110.25,103.550094 113.978571,98.3976193 C117.707143,93.245145 115.74,85.0946314 117.707143,78.9298321 C119.571429,72.9986462 126,67.5476658 126,60.9805322 C126,54.4133986 119.571429,48.9624182 117.707143,43.0312324 Z M63,101.447573 C40.8596934,101.447573 22.9114286,83.3298615 22.9114286,60.9805322 C22.9114286,38.6312029 40.8596934,20.5134918 63,20.5134918 C85.1403066,20.5134918 103.088571,38.6312029 103.088571,60.9805322 C103.088571,71.7130586 98.8649662,82.0060087 91.3469007,89.5950509 C83.8288352,97.1840932 73.6321502,101.447573 63,101.447573 Z" id="Shape"></path>
            </g>
        </g>
    </g>
</svg>