<?xml version="1.0" encoding="UTF-8"?>
<svg width="123px" height="124px" viewBox="0 0 123 124" version="1.1" xmlns="http://www.w3.org/2000/svg" xmlns:xlink="http://www.w3.org/1999/xlink">
    <!-- Generator: Sketch 55.2 (78181) - https://sketchapp.com -->
    <title>noun_sun_1006211</title>
    <desc>Created with Sketch.</desc>
    <g id="Page-1" stroke="none" stroke-width="1" fill="none" fill-rule="evenodd">
        <g id="DESIGN-DESKTOP" transform="translate(-123.000000, -1689.000000)" fill="#FF760D">
            <g id="noun_sun_1006211" transform="translate(123.000000, 1689.000000)">
                <g id="Group" transform="translate(0.000000, 0.454524)">
                    <path d="M61.500002,28.7638667 C43.3583792,28.7638667 28.6046512,43.466886 28.6046512,61.5456944 C28.6046512,79.6245028 43.3583792,94.3270851 61.500002,94.3270851 C79.6416204,94.3270851 94.3953488,79.6245028 94.3953488,61.5456944 C94.3953488,43.466886 79.6416204,28.7638667 61.500002,28.7638667 Z M61.5000013,33.0397287 C77.3239707,33.0397287 90.1046512,45.7762458 90.1046512,61.5454759 C90.1046512,77.3147059 77.3239707,90.051223 61.5000013,90.051223 C45.6760276,90.051223 32.8953488,77.3147059 32.8953488,61.5454759 C32.8953488,45.7762458 45.6760276,33.0397287 61.5000013,33.0397287 Z" id="Shape" fill-rule="nonzero"></path>
                    <path d="M61.4664875,0.25836977 C60.2819251,0.277553094 59.3365863,1.28964066 59.3549131,2.51903884 L59.3549131,15.8163326 C59.3440167,16.6191778 59.7504686,17.3659243 60.4186405,17.7706469 C61.0868123,18.1753696 61.9131924,18.1753696 62.5813643,17.7706469 C63.2495362,17.3659243 63.655988,16.6191778 63.6450917,15.8163326 L63.6450917,2.51903884 C63.6540728,1.91659498 63.4274147,1.33609359 63.0168729,0.910087277 C62.6063311,0.484080965 62.0469601,0.248944665 61.4664875,0.25836977 L61.4664875,0.25836977 Z" id="Path"></path>
                    <path d="M61.4664851,105.016991 C60.8975597,105.026202 60.3554643,105.269606 59.9594637,105.693652 C59.5634632,106.117698 59.345999,106.687646 59.3549148,107.278105 L59.3549148,120.574953 C59.3440185,121.377798 59.7504695,122.124545 60.4186401,122.529268 C61.0868107,122.93399 61.9131891,122.93399 62.5813597,122.529268 C63.2495303,122.124545 63.6559813,121.377798 63.645085,120.574953 L63.645085,107.278105 C63.6541834,106.675584 63.4275775,106.094967 63.0170235,105.668863 C62.6064695,105.242759 62.0470321,105.007562 61.4664851,105.016991 Z" id="Path"></path>
                    <path d="M2.26067145,59.4076327 C1.45575333,59.3998333 0.70846003,59.8055852 0.30362568,60.4702343 C-0.10120867,61.1348835 -0.10120867,61.9560231 0.30362568,62.6206722 C0.70846003,63.2853213 1.45575333,63.6910733 2.26067145,63.6832739 L15.6172354,63.6832739 C16.4221535,63.6910733 17.1694468,63.2853213 17.5742811,62.6206722 C17.9791155,61.9560231 17.9791155,61.1348835 17.5742811,60.4702343 C17.1694468,59.8055852 16.4221535,59.3998333 15.6172354,59.4076327 L2.26067145,59.4076327 Z" id="Path"></path>
                    <path d="M107.382764,59.4076327 C106.577846,59.3998333 105.830553,59.8055852 105.425719,60.4702343 C105.020884,61.1348835 105.020884,61.9560231 105.425719,62.6206722 C105.830553,63.2853213 106.577846,63.6910733 107.382764,63.6832739 L120.739329,63.6832739 C121.544247,63.6910733 122.29154,63.2853213 122.696374,62.6206722 C123.101208,61.9560231 123.101208,61.1348835 122.696374,60.4702343 C122.29154,59.8055852 121.544247,59.3998333 120.739329,59.4076327 L107.382764,59.4076327 Z" id="Path"></path>
                    <path d="M102.91842,18.0749873 C102.361753,18.0904374 101.832936,18.3208628 101.443771,18.7175471 L92.914267,27.2199294 C92.3511291,27.7550837 92.123279,28.552038 92.3189058,29.3023319 C92.5145326,30.0526258 93.1029361,30.6385136 93.8563754,30.8332279 C94.6098146,31.0279423 95.4100502,30.8009262 95.9473518,30.240046 L104.476855,21.7376637 C105.107821,21.1230557 105.296376,20.1863089 104.952024,19.3770047 C104.607672,18.5677005 103.800706,18.0510394 102.91842,18.0749873 L102.91842,18.0749873 Z" id="Path"></path>
                    <path d="M20.0138895,18.0741889 C19.1437985,18.0779913 18.3621787,18.6047755 18.0352091,19.4077648 C17.7082395,20.2107542 17.9006864,21.130892 18.522391,21.7371054 L27.0524237,30.2400099 C27.5897592,30.8009219 28.3900429,31.0279499 29.1435271,30.8332232 C29.8970112,30.6384966 30.4854499,30.0525742 30.6810892,29.3022359 C30.8767286,28.5518976 30.6488665,27.7548957 30.0856965,27.2197078 L21.5556637,18.7168033 C21.1501031,18.3038474 20.5939137,18.072032 20.0138895,18.0741889 L20.0138895,18.0741889 Z" id="Path"></path>
                    <path d="M94.3871606,92.1891314 C93.5165761,92.1927597 92.7344461,92.7198044 92.4073241,93.5232756 C92.0802021,94.3267468 92.2729144,95.2474192 92.8951444,95.85381 L101.428136,104.359813 C101.96637,104.917968 102.76553,105.142767 103.517448,104.947524 C104.269367,104.75228 104.856567,104.167498 105.052615,103.418679 C105.248663,102.669859 105.02293,101.873995 104.462461,101.337983 L95.9294696,92.83198 C95.5237683,92.4188737 94.967386,92.1869739 94.3871606,92.1891314 L94.3871606,92.1891314 Z" id="Path"></path>
                    <path d="M28.5451111,92.1899425 C27.9882515,92.2053982 27.4592512,92.4359076 27.0699514,92.8327363 L18.5374916,101.338215 C17.9770612,101.874194 17.7513446,102.670008 17.9473811,103.41878 C18.1434176,104.167551 18.7305793,104.752296 19.4824488,104.947527 C20.2343183,105.142759 21.0334268,104.917976 21.5716274,104.359858 L30.1040872,95.85438 C30.7355946,95.2395955 30.9244209,94.3022986 30.5799068,93.492504 C30.2353927,92.6827094 29.4278957,92.1657953 28.5451111,92.1899425 L28.5451111,92.1899425 Z" id="Path"></path>
                    <path d="M45.0598046,65.9313274 C44.3291341,65.9424384 43.6522681,66.3244715 43.2560745,66.949379 C42.859881,67.5742866 42.7967915,68.3593692 43.0879521,69.0414876 C44.0979924,71.4817534 45.5517637,73.6787044 47.3560262,75.5220259 C50.9647392,79.2091137 55.9739616,81.4994763 61.4748198,81.4994763 C66.9756736,81.4994763 71.984896,79.2091137 75.5936089,75.5220259 C77.3978714,73.6787044 78.8516428,71.4817534 79.861683,69.0414876 C80.2267982,68.2994632 80.1556489,67.4122849 79.6771369,66.7403361 C79.1986249,66.0683873 78.3923416,65.7234342 77.58581,65.8456013 C76.7792784,65.9677683 76.1066499,66.5367353 75.841155,67.3213804 C75.0523773,69.2269763 73.907192,70.9435249 72.4949849,72.3865112 C69.6707936,75.271594 65.790248,77.0513066 61.4748198,77.0513066 C57.1593872,77.0513066 53.2788415,75.271594 50.4546502,72.3865112 C49.0424432,70.9435249 47.8972578,69.2269763 47.1084801,67.3213804 C46.7714355,66.4733627 45.9585937,65.921839 45.0598046,65.9313274 L45.0598046,65.9313274 Z" id="Path" fill-rule="nonzero"></path>
                    <ellipse id="Oval" fill-rule="nonzero" cx="50.7732557" cy="50.8557981" rx="2.14534884" ry="2.13793103"></ellipse>
                    <ellipse id="Oval" fill-rule="nonzero" cx="72.2267441" cy="50.8557981" rx="2.14534884" ry="2.13793103"></ellipse>
                </g>
            </g>
        </g>
    </g>
</svg>